<?xml version="1.0" encoding="UTF-8" standalone="no"?>
<svg
   xmlns:dc="http://purl.org/dc/elements/1.1/"
   xmlns:cc="http://creativecommons.org/ns#"
   xmlns:rdf="http://www.w3.org/1999/02/22-rdf-syntax-ns#"
   xmlns:svg="http://www.w3.org/2000/svg"
   xmlns="http://www.w3.org/2000/svg"
   xmlns:sodipodi="http://sodipodi.sourceforge.net/DTD/sodipodi-0.dtd"
   xmlns:inkscape="http://www.inkscape.org/namespaces/inkscape"
   width="43.6111in"
   height="35.5556in"
   viewBox="0 0 3140 2560"
   version="1.1"
   id="svg3"
   sodipodi:docname="alban-andrieu-signature-#2.svg"
   inkscape:version="1.0.1 (1.0.1+r73)">
  <metadata
     id="metadata9">
    <rdf:RDF>
      <cc:Work
         rdf:about="">
        <dc:format>image/svg+xml</dc:format>
        <dc:type
           rdf:resource="http://purl.org/dc/dcmitype/StillImage" />
        <dc:title></dc:title>
      </cc:Work>
    </rdf:RDF>
  </metadata>
  <defs
     id="defs7" />
  <sodipodi:namedview
     pagecolor="#ffffff"
     bordercolor="#666666"
     borderopacity="1"
     objecttolerance="10"
     gridtolerance="10"
     guidetolerance="10"
     inkscape:pageopacity="0"
     inkscape:pageshadow="2"
     inkscape:window-width="1671"
     inkscape:window-height="925"
     id="namedview5"
     showgrid="false"
     inkscape:zoom="0.36087261"
     inkscape:cx="1917.5794"
     inkscape:cy="1785.4512"
     inkscape:window-x="72"
     inkscape:window-y="58"
     inkscape:window-maximized="0"
     inkscape:current-layer="svg3" />
  <path
     id="Selection"
     d="m 1954,266 c -20.5016,37.45987 -58.6595,64.84098 -82.2955,100.95979 -31.0644,37.39253 -52.0371,81.49149 -86.8445,114.72021 -32.1065,30.63344 -59.4984,76.69661 -96.0063,112.74125 -21.2691,28.08769 -44.4034,60.69445 -70.2425,89.3725 -29.7015,23.37436 -70.0098,28.49792 -104.0401,47.10584 -21.8468,5.91873 -48.581,18.43033 -72.838,28.16878 -29.9064,15.664 -55.4112,24.57473 -80.4131,41.41163 -34.5891,15.86622 -70.2977,41.64312 -101.32,67.52 -44.2499,12.15098 -68.1046,52.57135 -101.2387,67.3225 -22.6395,28.08814 -62.8477,40.02769 -81.9113,71.9375 -29.4313,24.7081 -66.1548,55.3179 -99.09,87.97 -12.57133,25.1326 -66.45154,55.1192 -21.76,8.77 8.16767,-25.8895 108.6056,-112.18986 27.92035,-79.9909 C 969.5291,1042.3708 924.17572,1086.7521 930,1080 c -11.30053,18.6145 -22.33353,23.9492 -42,52 -16.66807,8.4597 -35.28771,56.0685 -53,84 -17.23459,12.852 -38.99179,76.9624 -36.18208,71.3354 1.27119,34.8736 -18.46946,61.1093 -38.81792,85.6646 -15.66596,35.4096 -36.49671,83.6382 -40,133.724 -2.35771,45.4034 -1.71077,90.0799 8,134 9.90628,17.3057 13.51864,47.1031 28.355,64.2435 19.42287,27.7094 50.9426,47.1257 67.645,70.3945 39.3016,4.9534 72.12605,27.1483 116.99593,16.448 40.18421,-8.1184 60.78797,-12.9924 95.36607,-30.81 22.8203,-18.627 64.3887,-42.0989 90.638,-64 20.649,-7.3071 45.6774,-43.2644 73.19,-53.9587 39.8335,-27.4806 35.6166,-37.1053 78.21,-64.4713 47.5314,-54.5398 25.6431,33.0915 1.935,49.7037 -20.6891,38.9683 -50.7404,77.4465 -68.335,121.7263 -36.4533,26.8972 -38.6956,82.3492 -69.26,118.92 -29.858,40.3613 -29.7017,72.506 -46.18,117.38 -7.0292,45.1257 -36.1115,56.2467 -62.7,86.99 -7.6249,21.452 -29.318,63.3989 -29.86,58.71 -2.4722,11.4173 -24.59672,25.6329 -36,60 -21.31452,15.7535 -1.5225,58.0937 -27.3975,76.9113 -22.21164,77.7593 63.1238,28.9766 74.3975,-6.9113 -1.1528,-33.2441 27.467,-43.8354 39.26,-76 26.2986,-55.3606 44.586,-115.1683 74.74,-168 16.931,-10.9431 36.6229,-48.5673 60.4675,-70.1881 26.6621,-31.7425 62.3829,-53.8395 86.4525,-84.5719 26.2756,-24.4845 47.7254,-40.1926 71.2851,-66.8527 40.0371,-34.4403 74.4996,-61.8721 114.2849,-94.8973 44.4308,-33.1526 85.7031,-72.148 131.51,-102.49 34.4262,-22.6276 71.6393,-50.2756 109.0263,-69.72 16.7574,-12.1369 66.6515,-54.9863 55.9737,-39.28 15.3014,-1.6457 46.1711,-24.1487 72.8093,-37.4333 53.6272,-28.0818 104.6017,-57.0226 162.2707,-77.3367 53.7088,-0.4101 89.3449,-40.1717 134.8357,-63.1251 53.1035,-21.4089 105.798,-41.1156 158.7943,-60.5749 51.2729,-17.6953 104.9001,-30.8793 154.42,-52.05 -8.2652,-26.2265 -53.2523,6.0977 -77.4315,5.6213 -82.9508,28.3267 -163.8288,54.765 -246.4585,83.7987 -5.1483,-40.9091 61.406,-41.0416 83.76,-67.9 44.3958,-6.1405 87.0131,-75.5148 10.1293,-35.4179 -38.6288,35.5581 -100.325,26.5287 -121.3656,75.9479 -13.2177,48.7812 -56.0707,54.6569 -28.6815,-11.7264 26.8176,-58.5864 -29.4511,-74.1897 -47.2019,-11.7337 -14.1715,38.707 -52.3066,76.5071 -37.0007,13.3651 7.9359,-30.4985 10.117,-106.2461 -38.6196,-83.015 -35.2106,29.1745 -64.9893,64.2188 -98.2,94.21 -20.5345,-38.4334 -77.8189,-57.2213 -121.38,-25.47 -36.8313,2.8461 9.2913,-57.7435 19.54,-75.65 39.191,-53.9296 64.0543,-117.0555 98.99,-173.55 24.8439,-49.30826 50.6079,-98.67736 72.66,-148.96 -31.7021,-41.70806 -80.4017,55.33479 -105.87,79 -37.3486,36.52698 -67.0694,78.6291 -106.33,113.01 -35.8201,37.3652 -65.9458,80.9238 -98.4766,119.7019 -21.287,32.416 -41.8744,64.9139 -68.8692,93.2328 -13.1301,20.547 -40.3319,35.8567 -44.3242,56.0553 -26.5338,31.9652 -45.6265,13.9912 -30.4,-34 21.771,-68.2688 44.0744,-135.7585 71.7,-202 22.0923,-61.9807 60.7245,-127.74217 91.57,-190.82 21.6091,-35.47662 46.4271,-77.32989 69.13,-105.18 15.3976,-38.19582 49.3175,-88.39468 90.3471,-44.55413 75.5304,21.54918 -35.4153,-69.43663 -30.5841,-52.02391 8.1253,-33.78152 34.3631,-77.68511 51.377,-114.59196 23.6848,-50.57486 50.8299,-97.82168 84.3207,-139.14673 31.7691,-44.77365 67.6275,-88.59242 98.695,-130.15632 C 1998.9614,263.51612 1970.4203,256.48613 1954,266 Z m -222,336 c 12.3161,41.51017 -78.7895,113.58246 -41.48,42.99 11.9233,-14.53595 23.3619,-33.02215 41.48,-42.99 z m -72,150 c -26.0796,33.4618 -48.6398,64.61559 -64.8887,99.37775 -17.6623,27.56206 -34.036,56.35901 -49.6388,84.746 -20.2173,33.70104 -33.671,62.75006 -49.4725,103.87625 -15.7442,18.4662 -20.21,52.2348 -33.77,74.96 -21.2933,29.0972 -13.626,76.4608 -36.23,101.04 -4.1297,38.2426 -21.0989,62.9295 -18.06,102.91 -1.5786,27.0878 -22.928,91.4425 24.06,73.09 68.7893,-64.7727 139.6302,-129.0723 190.3196,-210.8124 49.6387,-64.2169 100.526,-133.33 161.6804,-183.1876 -18.8083,55.4131 -49.0373,105.6914 -80.11,155.74 -38.2091,48.7621 -52.4737,113.7055 -77.7888,168.0813 -43.371,63.0329 44.706,47.1017 43.9988,-8.8213 24.6703,-24.2293 111.223,-96.4116 121.84,-32.276 2.0548,44.3145 -44.6403,64.2843 -82.6,65.756 -18.1518,38.6751 39.6005,27.1333 60.3543,20.1192 37.1438,-12.8511 54.4174,-52.9854 86.9356,-74.0148 20.4317,-42.0791 98.6093,-55.2981 81.3701,7.5875 10.4466,48.5663 -13.4237,84.8952 -62.2771,95.7932 -39.4188,18.1836 -62.9882,35.2598 -99.2529,53.2549 -30.3102,19.2733 -45.824,25.0047 -71.5566,43.3823 -25.2097,16.876 -51.0728,29.5077 -75.5656,48.9735 -22.776,17.4736 -47.7418,28.7682 -67.8178,49.9942 -29.8822,17.4906 -50.2857,34.3263 -80,57.97 -32.0292,29.3547 -63.3374,42.9482 -90.6115,71.5274 -29.8189,27.5307 -56.7111,51.2823 -83.9185,75.2626 -33.0689,23.4929 -46.0016,42.6248 -74.1317,69.5622 -15.8425,1.5148 -30.0832,28.7411 -24.8683,26.1078 -36.287,44.0831 -79.1794,58.7784 -42.55,-3.96 27.4163,-51.3857 54.541,-109.2894 90.55,-157.04 14.1433,-13.3933 35.3091,-64.852 53,-82 10.8476,-36.7609 40.7471,-72.4037 58,-104 12.3204,-25.5418 29.4969,-62.9846 42,-80 11.5861,-65.5749 -51.3392,-5.7434 -67.1422,13.9791 -17.6359,11.0692 -32.4493,40.4535 -59.8578,57.0209 -50.8278,38.9865 -78.9167,72.0462 -124.0358,106.1531 -29.9217,27.922 -59.9748,48.5585 -95.4142,72.9169 -39.4149,14.6472 -60.4815,36.7477 -101.83,48.51 -56.83654,12.7976 -124.94359,5.3293 -159.94828,-46.2017 -15.50522,-19.3334 -44.73384,-51.6238 -50.62038,-84.997 0.203,-14.9683 -4.4849,-56.8454 -4.15134,-91.7433 -4.98955,-30.4507 12.00925,-49.3348 16,-78.638 17.68897,-29.5771 12.52442,-1.7135 20.22227,22.6022 6.27241,34.8317 33.15255,65.7486 61.77773,79.3978 36.3044,21.476 96.35211,18.6504 138,2 61.4492,-20.3551 107.9477,-75.9173 144.81,-121 18.067,-20.2554 45.2893,-60.0002 64.5089,-82.6116 21.6846,-27.489 37.6391,-48.9725 54.3448,-70.4222 15.4392,-32.4323 40.156,-57.329 61.9863,-92.9662 37.215,-69.1799 78.8314,-136.2582 123.42,-201.01 29.2485,-46.74695 66.5338,-102.32399 103.67,-146 29.1351,-43.93166 63.566,-82.02837 97.3547,-123.28762 29.0946,-29.4115 44.6467,-6.77212 27.9053,23.29762 z m -100,-4 c 6.8709,24.39858 -42.4072,47.65699 -48.58,81.69 -26.5768,23.38086 -49.4074,58.30318 -72.62,90.57 -19.9261,28.08454 -41.9778,43.55382 -50.6844,75.36432 -16.961,19.26488 -32.7799,40.91228 -46.7478,66.87448 -16.5239,33.631 -41.9642,68.4857 -57.3678,97.5012 -6.0784,26.3602 -21.9164,33.8276 -24,53 -11.1407,17.2262 -18.5814,31.0238 -32,51 -15.783,19.7737 -20.8434,31.004 -42.77,56.48 -17.0951,37.3267 -46.5498,64.4611 -69.0038,96.6038 -20.6005,21.4442 -41.3785,52.0068 -68.8687,76.2037 -28.0129,33.8746 -72.2267,47.6124 -113.93547,58.245 C 867.92179,1566.162 819.17867,1528.8317 806,1463 c -2.55841,-39.4069 3.87765,-79.1334 12,-116 2.00317,-9.5808 18.87062,-37.7085 32.41272,-56.0717 21.01184,-28.9426 43.85596,-54.1496 53.72275,-76.9492 C 927.31673,1198.0195 932.4652,1185.9222 959,1151 c 9.58126,-13.1795 33.50765,-31.8608 56.1381,-53.1395 35.8284,-41.7023 52.8107,-51.0827 91.1819,-85.3605 69.2757,-62.49545 151.0616,-111.40033 229.0025,-161.5775 50.5572,-28.46118 103.6486,-60.67379 160.5569,-80.06563 C 1515.9745,760.11138 1537.0392,750.37993 1560,748 Z m 124,23 c 1.1381,2.74755 -2.7475,-1.13807 0,0 z m -553,191 c 1.1381,2.74755 -2.7475,-1.13807 0,0 z m -73,67 c 1.1381,2.7475 -2.7475,-1.1381 0,0 z m 20,3 c -4.5743,12.1372 -5.6115,-1.6702 0,0 z m -30,5 -3,3 z m 25,1 c 1.1381,2.7475 -2.7475,-1.1381 0,0 z m -97,5 c 1.13807,2.7475 -2.74755,-1.1381 0,0 z m 64,0 -2,3 z m -2,4 c 1.1381,2.7475 -2.7475,-1.1381 0,0 z m -76,6 c 1.13807,2.7475 -2.74755,-1.1381 0,0 z m -2,2 c 1.13807,2.7475 -2.74755,-1.1381 0,0 z m 19,4 c 5.5102,6.8768 -10.40877,9.6297 0,0 z m -24,2 c -1.46065,8.0249 -5.46821,-2.1192 0,0 z m -3,2 c 1.13807,2.7475 -2.74755,-1.1381 0,0 z m -6,6 c 1.13807,2.7475 -2.74755,-1.1381 0,0 z m 30,0 c 1.13807,2.7475 -2.74755,-1.1381 0,0 z m 63,3 c 1.1381,2.7475 -2.7475,-1.1381 0,0 z m -39,7 c 1.1381,2.7475 -2.74755,-1.1381 0,0 z m -30,2 c 1.47147,11.0892 -5.62991,-2.6895 0,0 z m 52,6 c 1.1381,2.7475 -2.7475,-1.1381 0,0 z m -59,1 c -8.11533,14.4902 -5.08927,-1.9508 0,0 z m 56,2 c 1.1381,2.7475 -2.7475,-1.1381 0,0 z m -1,2 c 1.1381,2.7475 -2.7475,-1.1381 0,0 z m -60,1 c 1.13807,2.7475 -2.74755,-1.1381 0,0 z m 59,0 c 1.1381,2.7475 -2.7475,-1.1381 0,0 z m -99,2 c 1.13807,2.7475 -2.74755,-1.1381 0,0 z m 36,1 c 1.13807,2.7475 -2.74755,-1.1381 0,0 z m 55,4 c 1.1381,2.7475 -2.7475,-1.1381 0,0 z m -58,5 c 1.13807,2.7475 -2.74755,-1.1381 0,0 z m 16,6 c -15.13213,15.1334 -6.00993,-2.1763 0,0 z m 33,0 c 1.1381,2.7475 -2.74755,-1.1381 0,0 z m -63,8 c 1.13807,2.7475 -2.74755,-1.1381 0,0 z m -1,2 c 1.13807,2.7475 -2.74755,-1.1381 0,0 z m -2,3 c 1.13807,2.7475 -2.74755,-1.1381 0,0 z m 18,5 c -6.72919,9.5782 -3.80542,-2.2261 0,0 z m -24,5 c -7.35667,24.0936 -12.44631,-4.1236 0,0 z m 4,1 c 1.13807,2.7475 -2.74755,-1.1381 0,0 z m 12,0 c -9.05692,12.6418 -13.2666,1.2444 0,0 z m -14,8 -4,2 z m -9,0 c 1.13807,2.7475 -2.74755,-1.1381 0,0 z m 5,3 c 2.61427,16.9446 -17.92361,6.8404 0,0 z m 35,4 c 1.13807,2.7475 -2.74755,-1.1381 0,0 z m -46,4 c 1.13807,2.7475 -2.74755,-1.1381 0,0 z m -1,2 c -6.1686,29.4511 -24.0736,37.1344 -2,0 z m 42,1 c 1.13807,2.7475 -2.74755,-1.1381 0,0 z m -34,2 c 1.13807,2.7475 -2.74755,-1.1381 0,0 z m 2,0 c 1.13807,2.7475 -2.74755,-1.1381 0,0 z m -4,1 c 1.12772,16.8137 -12.12274,8.5296 0,0 z m -8,9 c 0.0181,11.6342 -5.79251,2.1042 0,0 z m 33,4 c 1.13807,2.7475 -2.74755,-1.1381 0,0 z m 1296,0 c 1.1381,2.7475 -2.7475,-1.1381 0,0 z m -1297,1 c 1.13807,2.7475 -2.74755,-1.1381 0,0 z m 644,1 c 1.1381,2.7475 -2.7475,-1.1381 0,0 z m -683,1 c 1.13807,2.7475 -2.74755,-1.1381 0,0 z m -10,7 c 1.13807,2.7475 -2.74755,-1.1381 0,0 z m 371,17 c 3.1701,9.7766 -8.9282,-0.7326 0,0 z m 0,5 c 1.1381,2.7475 -2.7475,-1.1381 0,0 z m 680,7 c 10.3104,34.5862 -42.1188,6.6526 0,0 z m -1050,19 c 1.13807,2.7475 -2.74755,-1.1381 0,0 z m 922,7 c 1.1381,2.7475 -2.7475,-1.1381 0,0 z m -544,6 c 1.1381,2.7475 -2.7475,-1.1381 0,0 z m -4,6 c 1.1381,2.7475 -2.7475,-1.1381 0,0 z m -2,3 c 1.1381,2.7475 -2.7475,-1.1381 0,0 z m 948,4 c 1.1381,2.7475 -2.7475,-1.1381 0,0 z m -478,3 c 1.1381,2.7475 -2.7475,-1.1381 0,0 z m -476,3 c 1.1381,2.7475 -2.7475,-1.1381 0,0 z m 973,1 c 1.1381,2.7475 -2.7475,-1.1381 0,0 z m 6,0 c 1.1381,2.7475 -2.7475,-1.1381 0,0 z m -981,3 c 1.1381,2.7475 -2.7475,-1.1381 0,0 z m 967,1 c 1.1381,2.7475 -2.7475,-1.1381 0,0 z m -969,2 c 1.1381,2.7475 -2.7475,-1.1381 0,0 z m -4,6 c 1.1381,2.7475 -2.7475,-1.1381 0,0 z m -1,1 c 1.1381,2.7475 -2.7475,-1.1381 0,0 z m -1,2 c 1.1381,2.7475 -2.7475,-1.1381 0,0 z m -2,2 c 1.1381,2.7475 -2.7475,-1.1381 0,0 z m -4,8 c 1.1381,2.7475 -2.7475,-1.1381 0,0 z m 772,7 c 7.9403,70.7425 -46.3829,29.2368 0,0 z m -780,6 c 1.1381,2.7475 -2.7475,-1.1381 0,0 z m 270,17 c 1.1381,2.7475 -2.7475,-1.1381 0,0 z m -286,4 c 1.1381,2.7475 -2.7475,-1.1381 0,0 z m 592,8 c 1.1381,2.7475 -2.7475,-1.1381 0,0 z m -46,1 c 1.1381,2.7475 -2.7475,-1.1381 0,0 z m -276,1 c 1.1381,2.7475 -2.7475,-1.1381 0,0 z m 268,2 c 1.1381,2.7475 -2.7475,-1.1381 0,0 z m -272,2 c 1.1381,2.7475 -2.7475,-1.1381 0,0 z m -2,2 c 1.1381,2.7475 -2.7475,-1.1381 0,0 z m 258,2 c 1.1381,2.7475 -2.7475,-1.1381 0,0 z m 314,15 c 1.1381,2.7475 -2.7475,-1.1381 0,0 z m -600,7 c 1.1381,2.7475 -2.7475,-1.1381 0,0 z m 181,6 c -9.6484,1.5988 -0.2413,-4.8873 0,0 z m -185,-2 c 1.1381,2.7475 -2.7475,-1.1381 0,0 z m -8,9 c 1.1381,2.7475 -2.7475,-1.1381 0,0 z m -42,4 c 1.1381,2.7475 -2.7475,-1.1381 0,0 z m 2,4 c 1.1381,2.7475 -2.7475,-1.1381 0,0 z m 458,49 c 1.1381,2.7475 -2.7475,-1.1381 0,0 z m -88,18 c 1.1381,2.7475 -2.7475,-1.1381 0,0 z m 52,0 c 1.1381,2.7475 -2.7475,-1.1381 0,0 z m -54,2 c 1.1381,2.7475 -2.7475,-1.1381 0,0 z m 50,0 c 1.1381,2.7475 -2.7475,-1.1381 0,0 z m -413,7 c 1.1381,2.7475 -2.7475,-1.1381 0,0 z m 349,1 c 1.1381,2.7475 -2.7475,-1.1381 0,0 z m -350,1 c 1.1381,2.7475 -2.7475,-1.1381 0,0 z m -52,1 c 1.1381,2.7475 -2.7475,-1.1381 0,0 z m 370,16 c 1.1381,2.7475 -2.7475,-1.1381 0,0 z m 48,2 c 1.1381,2.7475 -2.7475,-1.1381 0,0 z m -2,1 c 1.1381,2.7475 -2.7475,-1.1381 0,0 z m -2,1 c 1.1381,2.7475 -2.7475,-1.1381 0,0 z m -52,1 c 1.1381,2.7475 -2.7475,-1.1381 0,0 z m -1,1 -4,3 z m -25,14 c 1.1381,2.7475 -2.7475,-1.1381 0,0 z m 6,29 c 1.1381,2.7475 -2.7475,-1.1381 0,0 z m -31,20 c 1.1381,2.7475 -2.7475,-1.1381 0,0 z m -2,2 c 1.1381,2.7475 -2.7475,-1.1381 0,0 z m -6,4 c 1.1381,2.7475 -2.7475,-1.1381 0,0 z m -1,1 c 1.1381,2.7475 -2.7475,-1.1381 0,0 z m -70,12 c 1.1381,2.7475 -2.7475,-1.1381 0,0 z m 22,20 c 1.1381,2.7475 -2.7475,-1.1381 0,0 z m -864,17 c 2.79722,9.964 -7.94528,-0.3889 0,0 z m 552,55 c 1.1381,2.7475 -2.7475,-1.1381 0,0 z m -2,4 c 1.1381,2.7475 -2.7475,-1.1381 0,0 z m -152,17 c 1.1381,2.7475 -2.7475,-1.1381 0,0 z m -130,57 c 1.1381,2.7475 -2.7475,-1.1381 0,0 z m -14,39 c 1.1381,2.7475 -2.74755,-1.1381 0,0 z m 266,55 c 1.1381,2.7475 -2.7475,-1.1381 0,0 z m -44,40 c 1.1381,2.7475 -2.7475,-1.1381 0,0 z m 8,38 c 1.1381,2.7475 -2.7475,-1.1381 0,0 z m -2,2 c 1.1381,2.7475 -2.7475,-1.1381 0,0 z m -92,98 c 1.1381,2.7475 -2.7475,-1.1381 0,0 z m -4,6 c 1.1381,2.7475 -2.7475,-1.1381 0,0 z m -128,112 c 1.1381,2.7475 -2.7475,-1.1381 0,0 z"
     inkscape:export-xdpi="96"
     inkscape:export-ydpi="96" />
</svg>
