<?xml version="1.0" encoding="UTF-8" standalone="no"?>
<svg
   xmlns:osb="http://www.openswatchbook.org/uri/2009/osb"
   xmlns:dc="http://purl.org/dc/elements/1.1/"
   xmlns:cc="http://creativecommons.org/ns#"
   xmlns:rdf="http://www.w3.org/1999/02/22-rdf-syntax-ns#"
   xmlns:svg="http://www.w3.org/2000/svg"
   xmlns="http://www.w3.org/2000/svg"
   xmlns:sodipodi="http://sodipodi.sourceforge.net/DTD/sodipodi-0.dtd"
   xmlns:inkscape="http://www.inkscape.org/namespaces/inkscape"
   sodipodi:docname="flag-norway-location.svg"
   inkscape:version="1.0 (1.0+r73+1)"
   id="svg8"
   version="1.1"
   viewBox="0 0 177.50783 181.27965"
   height="181.27965mm"
   width="177.50783mm">
  <defs
     id="defs2">
    <linearGradient
       osb:paint="solid"
       id="linearGradient3272">
      <stop
         id="stop3270"
         offset="0"
         style="stop-color:#000000;stop-opacity:1;" />
    </linearGradient>
  </defs>
  <sodipodi:namedview
     inkscape:window-maximized="0"
     inkscape:window-y="27"
     inkscape:window-x="122"
     inkscape:window-height="1016"
     inkscape:window-width="1655"
     fit-margin-bottom="0"
     fit-margin-right="0"
     fit-margin-left="0"
     fit-margin-top="0"
     showgrid="false"
     inkscape:document-rotation="0"
     inkscape:current-layer="layer1"
     inkscape:document-units="mm"
     inkscape:cy="330.98366"
     inkscape:cx="76.025221"
     inkscape:zoom="0.35"
     inkscape:pageshadow="2"
     inkscape:pageopacity="0.0"
     borderopacity="1.0"
     bordercolor="#666666"
     pagecolor="#ffffff"
     id="base" />
  <metadata
     id="metadata5">
    <rdf:RDF>
      <cc:Work
         rdf:about="">
        <dc:format>image/svg+xml</dc:format>
        <dc:type
           rdf:resource="http://purl.org/dc/dcmitype/StillImage" />
        <dc:title></dc:title>
      </cc:Work>
    </rdf:RDF>
  </metadata>
  <g
     transform="translate(-96.887232,-60.593907)"
     id="layer1"
     inkscape:groupmode="layer"
     inkscape:label="Calque 1">
    <g
       transform="matrix(0.12577176,0,0,0.14035586,114.91346,96.49514)"
       id="g1279">
      <rect
         y="0"
         x="0"
         width="1100"
         height="800"
         fill="#ef2b2d"
         id="rect1257" />
      <rect
         y="0"
         width="200"
         height="800"
         x="300"
         fill="#ffffff"
         id="rect1259" />
      <rect
         x="0"
         width="1100"
         height="200"
         y="300"
         fill="#ffffff"
         id="rect1261" />
      <rect
         y="0"
         width="100"
         height="800"
         x="350"
         fill="#002868"
         id="rect1263" />
      <rect
         x="0"
         width="1100"
         height="100"
         y="350"
         fill="#002868"
         id="rect1265" />
    </g>
    <g
       transform="matrix(5.6092758,0,0,5.7644611,96.887001,60.01638)"
       id="g3395">
      <g
         id="g3331">
	<g
   id="g3329">
		<path
   d="M 10.768,25.369 C 10.734,25.347 10.166,24.836 10.025,24.654 9.887,24.472 9.621,24.424 9.482,24.351 9.342,24.278 8.418,23.974 8.196,24.132 7.977,24.289 7.675,24.386 7.558,24.132 7.443,23.876 7.385,23.84 7.223,23.804 7.061,23.768 7.142,23.574 7.131,23.404 7.118,23.233 7.026,23.052 6.91,23.174 6.794,23.296 6.4,23.611 6.343,23.451 6.285,23.295 6.006,22.639 6.424,22.517 c 0.416,-0.121 0.764,-0.049 0.869,0.06 0.104,0.109 0.184,0.413 0.313,0.376 0.128,-0.037 0.058,-0.268 0.104,-0.461 0.046,-0.192 0.349,-0.448 0.486,-0.715 0.139,-0.268 0.162,-0.425 0.335,-0.499 0.176,-0.072 0.268,-0.169 0.43,-0.291 0.163,-0.122 0.416,-0.229 0.511,-0.292 0.093,-0.062 0.509,-0.267 0.647,-0.23 0.139,0.037 0.231,-0.013 0.116,-0.219 C 10.119,20.04 9.969,19.421 9.749,19.142 9.529,18.863 9.505,18.788 9.401,18.523 9.297,18.255 9.18,18.025 9.099,18.207 9.018,18.39 8.845,18.633 8.752,18.401 8.66,18.171 8.671,18.182 8.555,18.073 8.44,17.965 8.346,17.939 8.185,17.891 8.023,17.842 7.861,17.903 7.872,18.061 7.883,18.22 7.72,18.5 7.826,18.706 c 0.104,0.207 0.197,0.426 0.057,0.498 -0.138,0.072 0,0.511 -0.138,0.497 -0.139,-0.011 -0.208,0.014 -0.208,-0.146 0,-0.157 0.069,-0.4 -0.187,-0.4 -0.254,0 -0.405,-0.133 -0.59,-0.267 C 6.574,18.755 6.424,18.826 6.47,18.524 6.516,18.22 6.448,18.111 6.655,17.941 6.864,17.772 6.911,17.674 7.061,17.747 7.212,17.82 7.315,17.82 7.41,17.735 7.502,17.65 7.675,17.686 7.675,17.577 c 0,-0.108 -0.197,-0.108 -0.173,-0.29 0.022,-0.184 0.116,-0.086 0.15,-0.39 C 7.686,16.594 7.432,16.133 7.177,16.193 6.921,16.255 6.529,16.606 6.448,16.448 6.366,16.29 6.204,16.363 5.891,16.472 5.578,16.581 4.281,16.363 4.189,16.253 c 0,0 -0.221,-0.157 -0.337,-0.072 C 3.737,16.266 3.273,16.229 3.134,16.205 2.994,16.181 2.867,16.362 2.695,16.303 2.519,16.241 1.906,16.12 1.768,16.023 1.627,15.926 1.418,15.926 1.328,15.878 1.235,15.828 0.898,15.805 0.83,15.901 c -0.069,0.097 -0.324,0.268 -0.452,0.388 -0.127,0.122 -0.276,0.099 -0.15,0.354 0.127,0.254 -0.324,0.413 -0.209,0.691 0.115,0.277 -0.023,1.03 0.44,1.177 0.464,0.146 0.846,0.23 1.112,0.013 0.268,-0.219 0.673,-0.219 0.8,0.024 0.127,0.242 0.197,0.606 0.613,0.812 0.416,0.208 0.776,0.803 0.753,1.07 -0.022,0.267 0.013,1.152 0.439,1.663 0.43,0.51 0.87,1.433 0.903,1.214 0.035,-0.219 0.035,-0.438 0.129,-0.28 0.091,0.159 0.335,0.645 0.729,0.729 0.395,0.085 0.592,0.108 0.741,0.256 0.15,0.145 0.279,0.229 0.44,0.303 0.162,0.073 0.556,0.292 0.637,0.438 0.082,0.146 0.047,0.34 -0.035,0.559 -0.08,0.219 -0.173,0.437 -0.058,0.644 0.117,0.206 0.36,0.802 0.558,0.935 0.197,0.134 0.392,0.352 0.346,0.656 -0.046,0.301 -0.266,1.6 -0.243,1.892 0.024,0.29 -0.265,1.249 -0.034,1.638 0.231,0.389 0.627,0.511 0.8,0.46 0.173,-0.047 0.035,-0.06 -0.047,-0.242 -0.081,-0.183 -0.07,-0.413 0.023,-0.582 0.094,-0.171 0.094,-0.268 0.047,-0.462 -0.047,-0.193 -0.023,-0.304 0.092,-0.448 0.117,-0.146 0.603,-0.534 0.754,-0.704 0.149,-0.17 1.101,-1.336 1.228,-1.434 0.127,-0.097 0.416,-0.327 0.51,-0.69 0.093,-0.364 0.428,-1.08 0.197,-1.264 -0.233,-0.183 -1.09,-0.317 -1.125,-0.342 z"
   id="path3313" />

		<path
   d="m 13.084,15.125 c 0.066,-0.128 0.226,-0.451 0.312,-0.628 h -3.67 c 0.044,0.195 0.203,0.918 0.173,1.211 -0.035,0.341 0.07,0.22 0.162,0.354 0.093,0.133 0.07,0.34 0.012,0.497 -0.059,0.158 -0.093,0.51 0.094,0.923 0.184,0.413 0.404,0.934 0.589,0.959 0.187,0.024 0.14,0.291 0.268,0.194 0.127,-0.099 0.149,-0.315 0.255,-0.631 0.104,-0.315 0.104,-0.547 0.371,-0.704 0.267,-0.158 1.007,-0.667 1.169,-0.851 0.163,-0.182 0.348,-0.255 0.29,-0.569 -0.06,-0.317 -0.117,-0.572 -0.025,-0.755 z"
   id="path3315" />

		<path
   d="m 31.153,16.558 c -0.139,-0.097 -0.972,-0.764 -1.332,-0.679 -0.357,0.085 -0.996,-0.195 -1.1,-0.256 -0.104,-0.061 -0.96,-0.323 -1.412,-0.34 -0.225,-0.008 -1.17,-0.218 -1.565,-0.387 -0.394,-0.17 -0.729,-1.007 -1.481,-0.874 -0.097,0.018 -1.007,0.146 -1.239,0.353 -0.23,0.207 -0.336,0.448 -0.463,0.497 -0.127,0.049 -0.498,0.024 -0.498,0.207 0,0.182 0.128,0.741 -0.022,0.631 -0.151,-0.109 -0.302,-0.364 -0.37,-0.17 -0.069,0.195 -0.188,0.304 -0.256,0.23 -0.068,-0.072 -0.419,0 -0.464,0.122 -0.046,0.122 -0.498,0.399 -0.693,0.438 -0.197,0.036 -0.279,0.134 -0.383,0.183 -0.104,0.048 -0.893,0.413 -1.042,0.278 -0.151,-0.133 -0.197,-0.048 -0.29,-0.023 0,0 -0.278,-0.049 -0.451,-0.268 -0.175,-0.218 -0.209,-0.146 -0.406,-0.352 -0.196,-0.206 -0.243,-0.412 -0.44,-0.327 -0.195,0.084 -1.029,0.946 -1.354,1.334 -0.323,0.39 -0.903,0.789 -0.614,1.068 0.291,0.279 0.44,0.243 0.476,0.399 0.036,0.157 0.07,0.328 0.116,0.39 0.046,0.061 0.324,0.278 0.463,-0.013 0.141,-0.292 0.162,-0.497 0.325,-0.448 0.162,0.048 0.196,0.158 0.114,0.376 -0.081,0.219 -0.138,0.558 -0.416,0.546 -0.278,-0.012 -0.578,-0.183 -0.673,-0.146 -0.092,0.036 -0.148,0.121 -0.254,0.206 -0.104,0.085 -0.429,0.485 -0.649,0.546 -0.219,0.062 -0.485,0.012 -0.335,0.193 0.15,0.181 0.37,0.583 0.162,0.571 -0.208,-0.013 -0.556,-0.048 -0.579,0.158 -0.023,0.205 -0.115,0.327 -0.069,0.473 0.046,0.146 0.197,0.425 0.381,0.328 0.188,-0.099 0.546,-0.194 0.638,-0.413 0.093,-0.219 0.198,-0.46 0.429,-0.449 0.231,0.012 0.788,0.316 0.753,0.425 -0.035,0.109 -0.15,0.364 -0.011,0.279 0.138,-0.085 0.254,-0.182 0.335,-0.218 0.081,-0.037 0.187,0.122 0.22,0.182 0.035,0.062 0.267,0.182 0.313,-0.013 0.047,-0.194 0.093,-0.047 0.23,0.013 0.141,0.062 0.557,0.109 0.613,0.158 0.06,0.048 0.187,0.194 0.024,0.388 -0.162,0.194 -0.349,0.269 -0.614,0.122 -0.267,-0.146 -0.557,0.122 -0.856,-0.024 -0.302,-0.146 -0.163,-0.352 -0.522,-0.497 -0.357,-0.146 -1.169,0.035 -1.425,0.108 -0.255,0.072 -0.266,0.098 -0.37,0.218 -0.104,0.122 -0.787,0.91 -0.787,1.359 0,0.449 0.254,1.664 1.076,1.542 0.823,-0.122 1.321,-0.049 1.229,0.193 -0.094,0.244 -0.046,0.304 0.104,0.583 0.15,0.278 0.499,2.136 0.556,2.438 0.059,0.305 -0.045,0.692 0.337,0.631 0.383,-0.06 0.788,-0.156 0.949,-0.509 0.163,-0.352 0.187,-0.752 0.395,-0.958 0.209,-0.207 0.464,-0.207 0.486,-0.498 0.022,-0.292 -0.058,-0.982 0.081,-1.142 0.139,-0.157 0.787,-0.886 0.856,-1.177 0.07,-0.291 0.162,-0.364 -0.104,-0.364 -0.266,0 -0.718,-0.036 -0.847,-0.279 C 18.302,23.657 18,23.196 18,23.088 c 0,-0.109 0.186,-0.098 0.277,0.133 0.093,0.229 0.416,0.923 0.787,0.775 0.371,-0.146 0.893,-0.314 0.904,-0.546 0.011,-0.229 -0.162,-0.497 -0.349,-0.483 -0.186,0.012 -0.382,-0.122 -0.382,-0.255 0,-0.134 0.034,-0.084 0.254,0 0.222,0.085 0.29,0.229 0.626,0.255 0.336,0.023 0.719,0.351 0.903,0.498 0.186,0.146 0.509,1.141 0.591,1.237 0.08,0.099 0.175,0.099 0.255,-0.097 0.082,-0.195 0.429,-0.812 0.626,-0.984 0.197,-0.17 0.208,-0.399 0.323,-0.254 0.116,0.146 0.614,0.51 0.649,0.729 0.035,0.218 -0.023,0.691 0.081,0.546 0.104,-0.146 0.186,-0.449 0.276,-0.315 0.094,0.135 0.094,0.341 0.313,0.183 0.221,-0.157 0.603,-0.219 0.395,-0.559 -0.208,-0.34 -0.069,-0.546 0.06,-0.558 0.127,-0.013 0.996,-0.17 1.019,-0.645 0.023,-0.473 -0.302,-0.728 -0.148,-0.971 0.148,-0.243 0.368,-0.461 0.416,-0.315 0.046,0.146 -0.116,0.618 0.092,0.546 0.209,-0.073 0.452,-0.073 0.452,-0.22 0,-0.146 -0.047,-0.511 0.047,-0.606 0.093,-0.097 0.774,-0.74 0.856,-0.995 0.081,-0.255 0.232,-0.473 0.104,-0.667 -0.128,-0.194 -0.347,-0.134 -0.174,-0.376 0.174,-0.243 0.464,-0.467 0.684,-0.486 0.703,-0.061 0.505,0.809 0.516,1.002 0.014,0.194 0.014,0.681 0.117,0.438 0.104,-0.243 0.225,-0.541 0.434,-0.747 0.209,-0.206 0.323,-0.34 0.337,-0.522 0.012,-0.182 0.021,-0.242 0.22,-0.34 0.197,-0.097 1.065,-0.437 1.146,-0.667 0.08,-0.229 -0.104,-0.438 0.104,-0.424 0.208,0.011 0.405,0.242 0.51,0.121 0.105,-0.121 0.336,-0.339 0.324,-0.461 -0.014,-0.123 -0.351,-0.403 -0.492,-0.5 z"
   id="path3317" />

		<path
   d="m 27.414,20.636 c -0.07,0.159 -0.104,0.183 -0.208,0.511 -0.106,0.327 -0.071,0.242 -0.176,0.448 -0.104,0.207 -0.276,0.229 -0.451,0.365 -0.175,0.134 -0.221,0.399 -0.221,0.399 -0.15,0.206 0.614,-0.292 0.88,-0.449 0.267,-0.157 0.198,-0.34 0.221,-0.595 0.023,-0.255 0.095,-0.292 0.208,-0.401 0.115,-0.108 0.023,-0.327 -0.032,-0.484 -0.061,-0.159 -0.153,0.049 -0.221,0.206 z"
   id="path3319" />

		<path
   d="m 25.039,26.146 c 0.08,-0.061 0.022,-0.194 0.149,-0.17 0.128,0.023 0.243,0.098 0.396,0.013 0.149,-0.086 0.277,-0.05 0.254,-0.194 -0.022,-0.146 0,-0.34 -0.034,-0.46 -0.035,-0.122 -0.243,-0.159 -0.395,-0.024 -0.149,0.134 -0.357,0.34 -0.357,0.266 0,-0.071 0.091,-0.266 0.045,-0.388 -0.045,-0.121 0.022,-0.23 -0.208,-0.133 -0.232,0.097 -0.359,0.073 -0.44,0.207 -0.081,0.134 -0.174,0.364 -0.312,0.218 -0.14,-0.145 -0.545,-0.448 -0.545,-0.448 -0.033,-0.037 -0.496,-0.414 -0.334,-0.158 0.161,0.256 0.404,0.692 0.521,0.85 0.114,0.158 0.242,0.34 0.381,0.255 0.14,-0.085 0.163,-0.109 0.349,0 0.181,0.106 0.449,0.227 0.53,0.166 z"
   id="path3321" />

		<path
   d="m 27.878,25.807 c -0.222,-0.097 -0.129,-0.183 -0.396,-0.23 -0.267,-0.047 -0.486,0 -0.557,-0.048 -0.07,-0.049 -0.416,-0.17 -0.37,0 0.047,0.171 0.359,0.218 0.439,0.267 0.081,0.049 -0.115,0.158 0.034,0.242 0.15,0.084 0.255,0.243 0.452,0.194 0.197,-0.049 0.267,0.061 0.427,0.085 0.163,0.024 0.325,-0.024 0.258,-0.098 -0.07,-0.072 -0.115,-0.17 -0.104,-0.254 0.011,-0.085 0.035,-0.062 -0.183,-0.158 z"
   id="path3323" />

		<path
   d="m 27.761,26.887 c -0.081,-0.243 -0.278,-0.691 -0.323,-0.474 -0.047,0.219 -0.36,0.375 -0.477,0.363 -0.106,-0.011 -0.046,-0.121 -0.046,-0.219 0,-0.097 -0.061,-0.194 -0.325,-0.121 -0.268,0.073 -0.323,0.328 -0.395,0.304 -0.068,-0.023 -0.255,-0.073 -0.37,0.062 -0.115,0.134 -0.221,0.388 -0.358,0.437 -0.141,0.049 -0.604,0.109 -0.604,0.305 0,0.193 0.117,0.484 0.105,0.643 -0.012,0.159 -0.224,0.521 0.058,0.631 0.162,0.064 0.277,0.073 0.465,-0.023 0.185,-0.098 0.983,-0.353 1.088,-0.269 0.104,0.085 0.273,0.285 0.348,0.328 0.147,0.087 0.187,0.291 0.384,0.339 0.194,0.049 0.347,0.073 0.427,0.073 0.082,0 0.37,-0.097 0.44,-0.268 0.069,-0.171 0.197,-0.57 0.255,-0.765 0.06,-0.194 0.115,-0.412 -0.058,-0.583 -0.174,-0.168 -0.533,-0.52 -0.614,-0.763 z"
   id="path3325" />

		<path
   d="m 15.442,14.938 c 0.137,0.334 0.608,0.336 0.747,0.002 1.677,-4.122 5.249,-4.927 5.249,-9.217 C 21.437,2.437 18.619,-0.19 15.269,0.126 11.971,0.437 9.715,3.63 10.29,6.89 c 0.586,3.311 3.636,4.331 5.152,8.048 z M 15.814,2.753 c 1.64,0 2.969,1.33 2.969,2.969 0,1.64 -1.33,2.969 -2.968,2.969 -1.64,0 -2.969,-1.329 -2.969,-2.969 0,-1.64 1.328,-2.969 2.968,-2.969 z"
   id="path3327" />

	</g>

</g>
      <g
         id="g3333">
</g>
      <g
         id="g3335">
</g>
      <g
         id="g3337">
</g>
      <g
         id="g3339">
</g>
      <g
         id="g3341">
</g>
      <g
         id="g3343">
</g>
      <g
         id="g3345">
</g>
      <g
         id="g3347">
</g>
      <g
         id="g3349">
</g>
      <g
         id="g3351">
</g>
      <g
         id="g3353">
</g>
      <g
         id="g3355">
</g>
      <g
         id="g3357">
</g>
      <g
         id="g3359">
</g>
      <g
         id="g3361">
</g>
    </g>
  </g>
</svg>
