<svg id="Calque_1" data-name="Calque 1" xmlns="http://www.w3.org/2000/svg" viewBox="0 0 156 30"><defs><style>.cls-1{fill:#3d8cbc;}</style></defs><title>Plan de travail 1</title><path class="cls-1" d="M21.09,22.3C15.33,23.8,6,21,5.62,13.93a12.68,12.68,0,0,0,3,13.25,12.85,12.85,0,0,0,1.75,1.46c.75.44,1.24.67,1.24.67L13,30l1.41-.68a29.29,29.29,0,0,0,5.56-3.71,20,20,0,0,0,3.89-4.37,13.74,13.74,0,0,1-2.7,1Z"/><path class="cls-1" d="M21.85,6.62A13.55,13.55,0,0,1,22,9.54a14.13,14.13,0,0,1-3.89,9,7.47,7.47,0,0,1-2.19,1.59c-.61.29-2,.92-2.72.67A12.7,12.7,0,0,0,25,19.17a11.73,11.73,0,0,0,1-4.67V0H18.78c.37,0,1.3,1.81,1.48,2.12a13.74,13.74,0,0,1,1.59,4.49Z"/><path class="cls-1" d="M3.73,19.24C3.43,13.8,6.48,6.64,12.49,6.34A12.66,12.66,0,0,0,0,8.62V14.5C0,18.26,1.92,22,5.56,25.22a13.68,13.68,0,0,1-1.69-4.66A11.86,11.86,0,0,1,3.73,19.24Z"/><path class="cls-1" d="M5.86,4.61a13.66,13.66,0,0,1,3.58-.12c4.64.45,10.4,3.52,10.67,8.73A12.75,12.75,0,0,0,17.16,0H0V7.1c0-.34,1.91-1.18,2.21-1.33a13.87,13.87,0,0,1,2.53-.92Q5.3,4.7,5.86,4.61Z"/><path class="cls-1" d="M58,22.11a7.86,7.86,0,0,0,6.25,0,5.71,5.71,0,0,0,3.09-3.84,7.91,7.91,0,0,0,.21-1.62V6.11l-.65.15a3.49,3.49,0,0,0-1.11.47,2.91,2.91,0,0,0-.88.91,2.78,2.78,0,0,0-.34,1.49v7.38a4.36,4.36,0,0,1-.12,1,3,3,0,0,1-1.62,2,3.68,3.68,0,0,1-1.68.34,3.72,3.72,0,0,1-1.71-.34,3,3,0,0,1-1.07-.88,3.07,3.07,0,0,1-.53-1.13,4.35,4.35,0,0,1-.12-1V6.14l-.63.13A3.55,3.55,0,0,0,56,6.74a2.83,2.83,0,0,0-.89.91,2.77,2.77,0,0,0-.34,1.49V16.6a3.71,3.71,0,0,0,0,.51A8.34,8.34,0,0,0,55,18.27h0a5.86,5.86,0,0,0,1,2.15A5.78,5.78,0,0,0,58,22.11Z"/><path class="cls-1" d="M39.07,17v.07a8.31,8.31,0,0,0,.18,1.16,5.83,5.83,0,0,0,1,2.15,5.75,5.75,0,0,0,2,1.69,7.86,7.86,0,0,0,6.25,0,5.72,5.72,0,0,0,2.08-1.71,5.84,5.84,0,0,0,1-2.14,7.83,7.83,0,0,0,.21-1.62V6.14l-.65.13a3.47,3.47,0,0,0-1.11.47,2.91,2.91,0,0,0-.88.91,2.76,2.76,0,0,0-.34,1.49v7.38a4.37,4.37,0,0,1-.12,1,3,3,0,0,1-1.62,2,3.68,3.68,0,0,1-1.68.34,3.72,3.72,0,0,1-1.71-.34,3,3,0,0,1-1.59-2,4.38,4.38,0,0,1-.12-1V13.61l-.63.14a3.62,3.62,0,0,0-1.12.48,2.86,2.86,0,0,0-.89.91A2.67,2.67,0,0,0,39,16.49V17Z"/><path class="cls-1" d="M80.19,15a8.13,8.13,0,0,0-3.71-1.89A7.47,7.47,0,0,1,73.89,12a1.57,1.57,0,0,1-.67-1.3,1.63,1.63,0,0,1,.62-1.35,3.09,3.09,0,0,1,2.56-.52A4.54,4.54,0,0,1,79.46,11l.42.64.45-.75a3.38,3.38,0,0,0,.39-1.06,2.69,2.69,0,0,0-.06-1.19,2.57,2.57,0,0,0-.75-1.13,6.58,6.58,0,0,0-8.1-.15,4.26,4.26,0,0,0-1.58,3.37,3.89,3.89,0,0,0,1.48,3.13,9,9,0,0,0,3.81,1.81,5.83,5.83,0,0,1,2.43,1.16,1.84,1.84,0,0,1,.6,1.4,1.46,1.46,0,0,1-.67,1.29,3.29,3.29,0,0,1-2,.57,3.7,3.7,0,0,1-1.87-.5,4.86,4.86,0,0,1-2-2.25l-.32-.68-.55.67a3.24,3.24,0,0,0-.53,1,2.6,2.6,0,0,0-.11,1.18,2.52,2.52,0,0,0,.59,1.23,5.46,5.46,0,0,0,2.73,1.77,7.32,7.32,0,0,0,2,.29A6.41,6.41,0,0,0,79.9,21.6a4.06,4.06,0,0,0,1.65-3.37A4.34,4.34,0,0,0,80.19,15Z"/><path class="cls-1" d="M133.59,10.76a5.71,5.71,0,0,0-3.08-3.84,7.87,7.87,0,0,0-6.25,0,5.74,5.74,0,0,0-2,1.69,5.84,5.84,0,0,0-1,2.15,8.34,8.34,0,0,0-.17,1.14,3.91,3.91,0,0,0,0,.53v7.39a2.76,2.76,0,0,0,.34,1.49,2.85,2.85,0,0,0,.89.91,3.5,3.5,0,0,0,1.12.48l.63.14V12.63a4.32,4.32,0,0,1,.12-1,3.05,3.05,0,0,1,.53-1.13,3,3,0,0,1,1.07-.88,4.38,4.38,0,0,1,3.4,0,3,3,0,0,1,1.09.89,3,3,0,0,1,.53,1.12,4.36,4.36,0,0,1,.12,1v7.19a2.79,2.79,0,0,0,.34,1.49,2.92,2.92,0,0,0,.88.91,3.47,3.47,0,0,0,1.11.47l.65.15V12.34A7.88,7.88,0,0,0,133.59,10.76Z"/><path class="cls-1" d="M146.47,8.05a7.19,7.19,0,0,0-2.68-1.25,9.85,9.85,0,0,0-2.11-.27h-5V22.69h4.94a4.28,4.28,0,0,0,.63,0,10.73,10.73,0,0,0,1.5-.23,7.21,7.21,0,0,0,4.81-3.82,8.64,8.64,0,0,0,.82-4,8.61,8.61,0,0,0-.81-3.94A7.22,7.22,0,0,0,146.47,8.05Zm-6.73,1.51h1.51a6.35,6.35,0,0,1,1.43.17,4.43,4.43,0,0,1,3,2.4,5.39,5.39,0,0,1,.5,2.46,5.42,5.42,0,0,1-.51,2.49,4.47,4.47,0,0,1-3,2.37,6.48,6.48,0,0,1-1.42.17h-1.51Z"/><path class="cls-1" d="M154.52,6.13a3.49,3.49,0,0,0-1.11.47,2.89,2.89,0,0,0-.88.91A2.76,2.76,0,0,0,152.19,9V19.65a2.76,2.76,0,0,0,.34,1.49,2.88,2.88,0,0,0,.88.91h0a3.53,3.53,0,0,0,1.11.47l.64.14V6Z"/><path class="cls-1" d="M116.33,6.92a2.83,2.83,0,0,0-.88.91,2.77,2.77,0,0,0-.34,1.49v7.33a4.38,4.38,0,0,1-.12,1,3,3,0,0,1-1.62,2,4.4,4.4,0,0,1-3.4,0,3,3,0,0,1-1.07-.88,3.13,3.13,0,0,1-.53-1.13,4.45,4.45,0,0,1-.12-1V6.3l-.62.15a3.54,3.54,0,0,0-1.13.48,2.86,2.86,0,0,0-.89.91,2.77,2.77,0,0,0-.34,1.49v7.41a3.71,3.71,0,0,0,0,.51,8.45,8.45,0,0,0,.18,1.16,5.84,5.84,0,0,0,1,2.15,5.76,5.76,0,0,0,2,1.69,7.87,7.87,0,0,0,6.25,0,5.71,5.71,0,0,0,3.09-3.84,7.89,7.89,0,0,0,.21-1.62V6.3l-.65.14A3.43,3.43,0,0,0,116.33,6.92Z"/><path class="cls-1" d="M98.19,7.47l-3,3.73-3-3.71a3.6,3.6,0,0,0-3.82-1l-.37.12v16.3l.65-.14h0a3.43,3.43,0,0,0,1.11-.47,2.89,2.89,0,0,0,.88-.91,2.75,2.75,0,0,0,.34-1.49v-9.1L95.21,16l4.16-5.22v9.1a2.75,2.75,0,0,0,.34,1.49,2.88,2.88,0,0,0,.88.91,3.47,3.47,0,0,0,1.11.47l.64.14V6.59L102,6.45A3.63,3.63,0,0,0,98.19,7.47Z"/></svg>