<?xml version="1.0" encoding="UTF-8" standalone="no"?>
<svg
   xmlns:osb="http://www.openswatchbook.org/uri/2009/osb"
   xmlns:dc="http://purl.org/dc/elements/1.1/"
   xmlns:cc="http://creativecommons.org/ns#"
   xmlns:rdf="http://www.w3.org/1999/02/22-rdf-syntax-ns#"
   xmlns:svg="http://www.w3.org/2000/svg"
   xmlns="http://www.w3.org/2000/svg"
   xmlns:sodipodi="http://sodipodi.sourceforge.net/DTD/sodipodi-0.dtd"
   xmlns:inkscape="http://www.inkscape.org/namespaces/inkscape"
   version="1.1"
   id="svg62"
   width="400"
   height="400"
   viewBox="0 0 400 400"
   sodipodi:docname="nabla-2.svg"
   inkscape:version="1.0 (1.0+r73+1)">
  <metadata
     id="metadata68">
    <rdf:RDF>
      <cc:Work
         rdf:about="">
        <dc:format>image/svg+xml</dc:format>
        <dc:type
           rdf:resource="http://purl.org/dc/dcmitype/StillImage" />
        <dc:title />
      </cc:Work>
    </rdf:RDF>
  </metadata>
  <defs
     id="defs66">
    <linearGradient
       osb:paint="solid"
       id="linearGradient895">
      <stop
         id="stop893"
         offset="0"
         style="stop-color:#000000;stop-opacity:1;" />
    </linearGradient>
  </defs>
  <sodipodi:namedview
     inkscape:document-rotation="0"
     pagecolor="#ffffff"
     bordercolor="#666666"
     borderopacity="1"
     objecttolerance="10"
     gridtolerance="10"
     guidetolerance="10"
     inkscape:pageopacity="0"
     inkscape:pageshadow="2"
     inkscape:window-width="3768"
     inkscape:window-height="1016"
     id="namedview64"
     showgrid="false"
     inkscape:zoom="2.8885312"
     inkscape:cx="137.17433"
     inkscape:cy="166.34138"
     inkscape:window-x="72"
     inkscape:window-y="27"
     inkscape:window-maximized="1"
     inkscape:current-layer="g70" />
  <g
     style="display:inline"
     inkscape:groupmode="layer"
     inkscape:label="Image"
     id="g70">
    <g
       transform="translate(-5.4512987,-28.759302)"
       style="mix-blend-mode:normal;fill:#00aad4;fill-opacity:1"
       id="g44">
      <path
         inkscape:export-ydpi="96"
         inkscape:export-xdpi="96"
         sodipodi:nodetypes="ssscssscsssscsssss"
         id="path46"
         d="M 195.21375,297.25 C 192.87931,295.21533 105.503,134.11439 103.28891,127.76268 99.784564,117.70952 103.96223,107.191 113.3094,102.53311 L 118.39269,100 h 66.80365 c 36.74201,0 66.79427,0.3375 66.7828,0.75 -0.0115,0.4125 -4.42784,8.85 -9.81414,18.75 l -9.79328,18 -39.39766,0.2618 c -21.66871,0.14399 -39.71783,0.59399 -40.10915,1 -0.9908,1.02799 45.54091,86.68334 47.2486,86.975 0.89873,0.1535 13.2946,-21.92147 35.23633,-62.75 L 269.19968,100 h 5.53414 c 16.18887,0 34.7107,-19.428434 22.25627,25.05228 -1.02723,3.66873 -14.88233,27.31823 -47.06909,87.28793 -24.2531,45.18788 -43.03549,83.17229 -44.18309,84.40979 -2.545,2.74438 -7.66978,2.98786 -10.52416,0.5 z"
         style="fill:#00aad4;fill-opacity:1" />
    </g>
  </g>
</svg>
