<svg width="151" height="32" viewBox="0 0 151 32" fill="none" xmlns="http://www.w3.org/2000/svg">
    <path d="M54.8654 14.208C55.6974 13.648 56.8974 12.832 57.4414 12.368C58.5454 11.472 59.2014 10.944 59.2014 9.216V2.016C59.2014 1.392 59.3294 1.184 59.9694 1.136L60.7374 1.072V0.336H55.2494V1.072L56.0174 1.136C56.6574 1.184 56.7854 1.392 56.7854 2.016V9.328C56.7854 11.216 56.2574 11.968 54.3694 13.552L54.8654 14.208Z" fill="#114564"/>
    <path d="M68.5933 12.672C71.7453 12.672 73.4413 10.88 73.4413 7.552V4.336C73.4413 1.328 73.6173 1.28 74.5933 1.152L75.1853 1.072V0.336H70.6893V1.072L71.2813 1.152C72.2573 1.28 72.4333 1.328 72.4333 4.336V7.52C72.4333 10.128 71.3773 11.424 69.2813 11.424C66.9133 11.424 66.1773 10.272 66.1773 7.824V2.016C66.1773 1.392 66.3053 1.184 66.9453 1.136L67.7133 1.072V0.336H62.2253V1.072L62.9933 1.136C63.6333 1.184 63.7613 1.392 63.7613 2.016V7.728C63.7613 10.992 65.3453 12.672 68.5933 12.672Z" fill="#114564"/>
    <path d="M80.7333 12.672C82.8293 12.672 85.1333 11.36 85.1333 8.976C85.1333 6.736 83.6933 6.128 81.4693 5.184L80.5893 4.816C79.4373 4.32 79.0533 3.648 79.0533 2.688C79.0533 1.664 79.8053 0.912 81.0213 0.912C82.0293 0.912 82.3333 1.152 83.1173 2.496L83.6293 3.392L84.3493 3.28L83.8213 0.400001C83.0053 0.144 82.1413 0 81.1333 0C78.9893 0 77.0533 1.376 77.0533 3.424C77.0533 5.28 77.9813 6.352 79.8853 7.136L80.7493 7.504C82.3493 8.192 83.1013 8.816 83.1013 9.84C83.1013 11.136 81.9333 11.728 80.7813 11.728C79.4533 11.728 78.8453 11.568 77.9493 9.648L77.4853 8.64L76.7493 8.752L77.2613 11.808C78.1093 12.32 79.2773 12.672 80.7333 12.672Z" fill="#114564"/>
    <path d="M62.2094 29.2604C59.1214 29.2604 57.7934 26.7004 57.7934 23.3084C57.7934 19.6124 59.7294 18.5084 61.9694 18.5084C63.4734 18.5084 64.2414 19.0524 65.0094 20.3324L65.4734 21.1164H66.2094L65.6974 18.1084C64.7374 17.7724 63.7294 17.5484 62.1774 17.5484C57.8414 17.5484 55.1534 20.4284 55.1534 23.8844C55.1534 27.3404 57.6974 30.2204 62.0654 30.2204C63.6174 30.2204 64.6574 29.9964 65.6174 29.6604L66.4014 26.5884H65.6494L65.1214 27.4364C64.3534 28.6684 63.6014 29.2604 62.2094 29.2604Z" fill="#114564"/>
    <path d="M74.5528 17.5484C71.1288 17.5484 68.1688 20.1564 68.1688 23.8844C68.1688 27.6444 71.1288 30.2204 74.5528 30.2204C77.9608 30.2204 80.9368 27.6284 80.9368 23.9004C80.9368 20.1404 77.9608 17.5484 74.5528 17.5484ZM74.4248 18.4924C76.7128 18.4924 78.2648 20.7004 78.2648 24.4124C78.2648 28.0604 76.3928 29.2764 74.6808 29.2764C72.3608 29.2764 70.8408 27.0844 70.8408 23.3724C70.8408 19.7084 72.7128 18.4924 74.4248 18.4924Z" fill="#114564"/>
    <path d="M94.2205 30.2204H94.7325V21.8844C94.7325 18.8764 94.9085 18.8284 95.8845 18.7004L96.4765 18.6204V17.8844H91.9805V18.6204L92.5725 18.7004C93.5485 18.8284 93.7245 18.8764 93.7245 21.8844V26.1084L85.7885 17.8844H82.3965V18.6204C83.9325 18.7484 84.3965 19.3244 84.3965 21.1804V26.0124C84.3965 29.0204 84.2205 29.0684 83.2445 29.1964L82.6525 29.2764V30.0124H87.1485V29.2764L86.5565 29.1964C85.5805 29.0684 85.4045 29.0204 85.4045 26.0124V20.6684L94.2205 30.2204Z" fill="#114564"/>
    <path d="M109.689 30.2204H110.201V21.8844C110.201 18.8764 110.377 18.8284 111.353 18.7004L111.945 18.6204V17.8844H107.449V18.6204L108.041 18.7004C109.017 18.8284 109.193 18.8764 109.193 21.8844V26.1084L101.257 17.8844H97.8647V18.6204C99.4007 18.7484 99.8647 19.3244 99.8647 21.1804V26.0124C99.8647 29.0204 99.6887 29.0684 98.7127 29.1964L98.1207 29.2764V30.0124H102.617V29.2764L102.025 29.1964C101.049 29.0684 100.873 29.0204 100.873 26.0124V20.6684L109.689 30.2204Z" fill="#114564"/>
    <path d="M113.589 30.0124H123.381L124.293 26.5884H123.525L122.853 27.6604C122.053 28.9404 121.765 29.0844 119.045 29.0844H118.917C117.685 29.0844 117.541 28.9244 117.541 27.6604V24.3804H119.141C120.181 24.3804 120.373 24.4924 120.597 25.4844L120.741 26.1564H121.509V21.6284H120.741L120.597 22.3004C120.373 23.2924 120.181 23.4044 119.141 23.4044H117.541V19.1324C117.541 18.9244 117.653 18.8124 117.861 18.8124H118.469C120.917 18.8124 121.397 18.9564 121.829 20.1884L122.133 21.0844H122.901L122.725 17.8524L118.117 17.8844H113.589V18.6204L114.357 18.6844C114.997 18.7324 115.125 18.9404 115.125 19.5644V28.3324C115.125 28.9564 114.997 29.1644 114.357 29.2124L113.589 29.2764V30.0124Z" fill="#114564"/>
    <path d="M132.847 29.2604C129.759 29.2604 128.431 26.7004 128.431 23.3084C128.431 19.6124 130.367 18.5084 132.607 18.5084C134.111 18.5084 134.879 19.0524 135.647 20.3324L136.111 21.1164H136.847L136.335 18.1084C135.375 17.7724 134.367 17.5484 132.815 17.5484C128.479 17.5484 125.791 20.4284 125.791 23.8844C125.791 27.3404 128.335 30.2204 132.703 30.2204C134.255 30.2204 135.295 29.9964 136.255 29.6604L137.039 26.5884H136.287L135.759 27.4364C134.991 28.6684 134.239 29.2604 132.847 29.2604Z" fill="#114564"/>
    <path d="M141.19 30.0124H146.998V29.2604L146.07 29.1804C145.43 29.1324 145.302 28.8764 145.302 28.2524V18.8124H145.398C147.846 18.8124 148.326 18.9564 148.758 20.1884L149.062 21.0844H149.83L149.526 17.2764H149.318C148.678 17.8364 148.39 17.8844 145.318 17.8844H142.87C139.798 17.8844 139.51 17.8364 138.87 17.2764H138.662L138.358 21.0844H139.126L139.43 20.1884C139.862 18.9564 140.342 18.8124 142.79 18.8124H142.886V28.2524C142.886 28.8764 142.758 29.1324 142.118 29.1804L141.19 29.2604V30.0124Z" fill="#114564"/>
    <path d="M38.6684 7.62939e-06L31.9197 10.4607H34.5415L41.2903 7.90056e-06L38.6684 7.62939e-06Z" fill="#114564"/>
    <path d="M20.6452 32L27.9896 20.6161H25.3681L19.3345 29.9685L20.6452 32Z" fill="#114564"/>
    <path d="M20.6452 32L0 0L2.62197 3.93775e-06L21.9558 29.9685L20.6452 32Z" fill="url(#paint0_linear_627_127)"/>
    <path d="M1.48903 2.30803L0 0L41.2903 4.20892e-06L39.8013 2.30803H1.48903Z" fill="#00CC77"/>
    <defs>
      <linearGradient id="paint0_linear_627_127" x1="0.0516237" y1="32.0001" x2="-8.52653" y2="2.49393" gradientUnits="userSpaceOnUse">
        <stop stop-color="#E1A410"/>
        <stop offset="0.478867" stop-color="#FFD267"/>
        <stop offset="0.885417" stop-color="#E1A410"/>
      </linearGradient>
    </defs>
</svg>
