<?xml version="1.0" encoding="iso-8859-1"?>
<!-- Generator: Adobe Illustrator 19.0.0, SVG Export Plug-In . SVG Version: 6.00 Build 0)  -->
<svg version="1.1" id="Layer_1" xmlns="http://www.w3.org/2000/svg" xmlns:xlink="http://www.w3.org/1999/xlink" x="0px" y="0px"
	 viewBox="0 0 511.994 511.994" style="enable-background:new 0 0 511.994 511.994;" xml:space="preserve">
<g>
	<g>
		<g>
			<path d="M333.954,398.451l120.683-120.683c8.332-8.332,8.331-21.842-0.003-30.173l-60.352-60.331
				c-8.332-8.329-21.839-8.327-30.169,0.004l-15.083,15.085l-90.502-90.518l15.088-15.088c8.332-8.332,8.331-21.842-0.003-30.173
				L213.263,6.246c-8.332-8.329-21.839-8.327-30.169,0.004L62.433,126.932c-8.33,8.331-8.329,21.838,0.001,30.169l60.331,60.331
				c8.331,8.331,21.839,8.331,30.17,0l15.085-15.085l30.169,30.169L1.348,429.357l30.17,30.17l196.84-196.84l30.179,30.179
				l-15.085,15.087c-8.33,8.331-8.329,21.838,0.001,30.169l60.331,60.331C312.116,406.783,325.623,406.783,333.954,398.451z
				 M137.85,172.177l-30.162-30.162l90.497-90.513l30.175,30.165l-51.315,51.315l-24.112,24.103c-0.029,0.029-0.052,0.06-0.08,0.089
				L137.85,172.177z M207.232,163.135l21.131-21.124l90.497,90.513l-30.162,30.162l-90.509-90.508L207.232,163.135z
				 M379.204,232.522l30.175,30.165l-90.51,90.51l-30.162-30.162L379.204,232.522z"/>
			<path d="M489.312,469.327h-192c-11.782,0-21.333,9.551-21.333,21.333s9.551,21.333,21.333,21.333h192
				c11.782,0,21.333-9.551,21.333-21.333S501.094,469.327,489.312,469.327z"/>
			<path d="M361.312,405.327c-11.782,0-21.333,9.551-21.333,21.333s9.551,21.333,21.333,21.333h64
				c11.782,0,21.333-9.551,21.333-21.333s-9.551-21.333-21.333-21.333H361.312z"/>
		</g>
	</g>
</g>
<g>
</g>
<g>
</g>
<g>
</g>
<g>
</g>
<g>
</g>
<g>
</g>
<g>
</g>
<g>
</g>
<g>
</g>
<g>
</g>
<g>
</g>
<g>
</g>
<g>
</g>
<g>
</g>
<g>
</g>
</svg>
