<?xml version="1.0" encoding="UTF-8" standalone="no"?>
<svg
   xmlns:dc="http://purl.org/dc/elements/1.1/"
   xmlns:cc="http://creativecommons.org/ns#"
   xmlns:rdf="http://www.w3.org/1999/02/22-rdf-syntax-ns#"
   xmlns:svg="http://www.w3.org/2000/svg"
   xmlns="http://www.w3.org/2000/svg"
   xmlns:sodipodi="http://sodipodi.sourceforge.net/DTD/sodipodi-0.dtd"
   xmlns:inkscape="http://www.inkscape.org/namespaces/inkscape"
   width="49.302273mm"
   height="49.325935mm"
   viewBox="0 0 49.302273 49.325935"
   version="1.1"
   id="svg922"
   inkscape:version="1.0 (1.0+r73+1)"
   sodipodi:docname="logo-labyrinth-simple.svg">
  <defs
     id="defs916" />
  <sodipodi:namedview
     id="base"
     pagecolor="#ffffff"
     bordercolor="#666666"
     borderopacity="1.0"
     inkscape:pageopacity="0.0"
     inkscape:pageshadow="2"
     inkscape:zoom="0.98994949"
     inkscape:cx="221.66684"
     inkscape:cy="-97.267864"
     inkscape:document-units="mm"
     inkscape:current-layer="layer1"
     inkscape:document-rotation="0"
     showgrid="false"
     inkscape:window-width="3768"
     inkscape:window-height="1016"
     inkscape:window-x="72"
     inkscape:window-y="27"
     inkscape:window-maximized="1"
     fit-margin-top="0"
     fit-margin-left="0"
     fit-margin-right="0"
     fit-margin-bottom="0" />
  <metadata
     id="metadata919">
    <rdf:RDF>
      <cc:Work
         rdf:about="">
        <dc:format>image/svg+xml</dc:format>
        <dc:type
           rdf:resource="http://purl.org/dc/dcmitype/StillImage" />
        <dc:title />
      </cc:Work>
    </rdf:RDF>
  </metadata>
  <g
     inkscape:label="Calque 1"
     inkscape:groupmode="layer"
     id="layer1"
     transform="translate(-81.153051,-123.68281)">
    <path
       inkscape:export-ydpi="96"
       inkscape:export-xdpi="96"
       style="fill:#000000;stroke-width:0.264583"
       d="m 101.08901,172.74954 c -5.137335,-1.00773 -10.738952,-4.27727 -14.131416,-8.24819 -2.782753,-3.25725 -5.289702,-8.70052 -5.660139,-12.2897 l -0.144404,-1.39914 0.896912,-0.003 c 0.493302,-0.002 1.313631,-0.0717 1.822954,-0.15571 l 0.926041,-0.15279 0.574506,2.41349 c 1.67975,7.05662 6.601988,12.66118 13.250864,15.08772 1.131336,0.41289 2.620872,0.83527 3.310072,0.93862 1.39493,0.20918 1.38479,0.1838 1.08166,2.70752 -0.0927,0.772 -0.2974,1.37618 -0.46073,1.36007 -0.16163,-0.016 -0.82147,-0.13248 -1.46632,-0.25898 z m 7.02342,-0.55135 c -0.42707,-2.80933 -0.42413,-2.85678 0.18507,-2.9841 0.3182,-0.0665 1.20956,-0.24549 1.98081,-0.39775 5.92343,-1.16938 11.55643,-5.57089 14.35129,-11.2138 0.86491,-1.7463 1.49036,-3.46258 1.78406,-4.89564 l 0.45224,-2.20665 1.7207,0.18223 c 0.94638,0.10022 1.76495,0.22466 1.81904,0.27652 0.0541,0.0519 -0.0534,0.90333 -0.23886,1.89214 -1.95765,10.43705 -10.06656,18.24608 -20.81187,20.04221 -1.09961,0.18381 -1.10971,0.17816 -1.24248,-0.69516 z m -6.11555,-7.10954 c -1.58748,-0.37965 -3.306667,-1.04664 -4.558906,-1.7687 l -1.119319,-0.64543 1.094133,-1.63152 c 0.601774,-0.89735 1.134881,-1.68079 1.184683,-1.74099 0.0498,-0.0602 0.715979,0.19587 1.480389,0.56905 2.10869,1.02945 3.55056,1.34807 6.02006,1.3303 5.56869,-0.0401 10.16368,-3.38792 12.08003,-8.80135 1.18137,-3.3372 0.67978,-7.92497 -1.18834,-10.86919 l -0.76895,-1.21189 1.59029,-1.27254 1.59028,-1.27253 0.4977,0.63234 c 0.90054,1.14417 2.31109,4.318 2.75365,6.19591 0.91131,3.86696 0.0831,8.91335 -2.05005,12.49157 -1.95556,3.28029 -5.79424,6.3258 -9.47753,7.51924 -1.95204,0.63249 -7.30591,0.91152 -9.12812,0.47573 z M 91.629183,157.8883 c -2.026581,-3.00806 -2.858919,-5.82349 -2.834935,-9.58933 0.01538,-2.41454 0.140123,-3.28073 0.732147,-5.08384 0.87455,-2.66359 2.821885,-5.65284 4.874549,-7.48267 1.781466,-1.58806 5.610566,-3.53022 7.860516,-3.98693 3.58277,-0.72725 8.17459,-0.20635 11.09361,1.25846 2.10287,1.05526 2.101,1.05167 1.19597,2.29309 -1.72646,2.3682 -1.44048,2.19367 -2.56519,1.56551 -2.37317,-1.32545 -5.79688,-1.85205 -8.44771,-1.29933 -5.087638,1.0608 -8.838199,4.54235 -10.282462,9.54493 -0.908275,3.14605 -0.26651,7.16842 1.633866,10.24055 l 0.596536,0.96435 -1.550903,1.21846 c -0.852997,0.67015 -1.590724,1.21765 -1.639394,1.21665 -0.04867,-0.001 -0.34864,-0.38795 -0.6666,-0.8599 z m 16.381137,-3.05763 c -0.16652,-1.1427 -0.16693,-1.80346 -10e-4,-1.86594 0.65181,-0.24567 2.17177,-1.83196 2.49377,-2.60261 0.4657,-1.11457 0.4574,-3.35335 -0.0158,-4.25911 -0.84131,-1.61024 -2.96638,-2.96342 -4.65391,-2.96342 -0.44591,0 -1.25178,0.18428 -1.79082,0.4095 -3.44984,1.44144 -4.316233,5.82996 -1.64382,8.32636 0.78706,0.73523 0.80272,0.79724 0.62915,2.49136 -0.10937,1.06748 -0.29944,1.73736 -0.49297,1.73736 -0.17324,0 -0.87485,-0.37084 -1.55913,-0.82409 -3.149824,-2.08635 -4.460582,-6.40519 -3.071083,-10.11896 2.094315,-5.59756 9.391453,-7.263 13.791173,-3.14758 1.44043,1.34735 2.2092,2.76981 2.63037,4.86697 0.76419,3.80516 -1.63572,8.038 -5.36018,9.45404 l -0.69788,0.26533 z m -25.923341,-8.97206 c -1.044691,-0.12965 -1.068331,-0.3789 -0.328588,-3.46459 0.989755,-4.12856 3.104916,-7.93103 6.187509,-11.12341 2.345521,-2.42906 4.491822,-3.97895 7.392369,-5.3382 2.089166,-0.97901 6.902641,-2.34844 7.202101,-2.04898 0.072,0.072 0.20346,0.90853 0.29222,1.85903 l 0.16138,1.7282 -1.16,0.18897 c -0.63801,0.10394 -2.176158,0.56716 -3.418116,1.02938 -6.613279,2.46128 -11.588658,8.26422 -13.12704,15.31048 l -0.447682,2.05052 -0.947128,-0.0423 c -0.520921,-0.0233 -1.334082,-0.0904 -1.807025,-0.14905 z m 44.412981,-1.58289 c -1.1897,-6.45673 -5.89248,-12.37831 -12.04667,-15.16875 -1.58129,-0.71699 -3.7029,-1.33998 -5.77569,-1.69596 -0.94414,-0.16215 -0.99218,-0.21946 -0.99218,-1.18367 0,-0.5573 0.0725,-1.37575 0.1611,-1.81878 0.15081,-0.75405 0.22266,-0.79696 1.12448,-0.67168 8.72287,1.21183 16.05127,6.82576 19.70569,15.09557 0.70615,1.598 1.98852,6.56529 1.74932,6.77603 -0.0653,0.0575 -0.90159,0.18159 -1.85843,0.27569 l -1.73972,0.1711 z"
       id="labyrinth" />
  </g>
</svg>
