<?xml version="1.0" encoding="UTF-8" standalone="no"?>
<svg
   xmlns:dc="http://purl.org/dc/elements/1.1/"
   xmlns:cc="http://creativecommons.org/ns#"
   xmlns:rdf="http://www.w3.org/1999/02/22-rdf-syntax-ns#"
   xmlns:svg="http://www.w3.org/2000/svg"
   xmlns="http://www.w3.org/2000/svg"
   xmlns:sodipodi="http://sodipodi.sourceforge.net/DTD/sodipodi-0.dtd"
   xmlns:inkscape="http://www.inkscape.org/namespaces/inkscape"
   sodipodi:docname="missing-simple.svg"
   inkscape:version="1.0 (1.0+r73+1)"
   id="svg2511"
   version="1.1"
   viewBox="0 0 74.029564 18.23946"
   height="18.23946mm"
   width="74.029564mm">
  <defs
     id="defs2505" />
  <sodipodi:namedview
     inkscape:window-maximized="0"
     inkscape:window-y="27"
     inkscape:window-x="172"
     inkscape:window-height="1016"
     inkscape:window-width="1655"
     fit-margin-bottom="0"
     fit-margin-right="0"
     fit-margin-left="0"
     fit-margin-top="0"
     showgrid="false"
     inkscape:document-rotation="0"
     inkscape:current-layer="layer1"
     inkscape:document-units="mm"
     inkscape:cy="-8.1906919"
     inkscape:cx="4.4410767"
     inkscape:zoom="2.8"
     inkscape:pageshadow="2"
     inkscape:pageopacity="0.0"
     borderopacity="1.0"
     bordercolor="#666666"
     pagecolor="#ffffff"
     id="base" />
  <metadata
     id="metadata2508">
    <rdf:RDF>
      <cc:Work
         rdf:about="">
        <dc:format>image/svg+xml</dc:format>
        <dc:type
           rdf:resource="http://purl.org/dc/dcmitype/StillImage" />
        <dc:title></dc:title>
      </cc:Work>
    </rdf:RDF>
  </metadata>
  <g
     transform="translate(-47.881305,-126.04346)"
     id="layer1"
     inkscape:groupmode="layer"
     inkscape:label="Calque 1">
    <path
       style="display:inline;fill:#000000;stroke-width:0.109341"
       d="m 48.464115,144.11271 c -0.0396,-0.094 -0.0655,-0.52828 -0.0575,-0.96501 0.008,-0.43674 -0.0159,-1.21658 -0.0532,-1.733 -0.0373,-0.51641 -0.0937,-1.5023 -0.12543,-2.19085 -0.0317,-0.68855 -0.12269,-2.66032 -0.20217,-4.3817 -0.0795,-1.72139 -0.14451,-3.76358 -0.14451,-4.5382 v -1.4084 l 1.948136,-0.0656 c 1.07148,-0.0361 2.59276,-0.0952 3.38061,-0.13134 3.04352,-0.13973 4.12866,-0.18199 5.84444,-0.22759 0.97694,-0.026 2.65291,-0.0932 3.72439,-0.14932 1.07149,-0.0562 2.79903,-0.12671 3.839,-0.15677 1.03996,-0.0301 2.30496,-0.0778 2.8111,-0.10617 0.50614,-0.0283 2.33682,-0.0972 4.068188,-0.15311 1.731362,-0.0559 3.560482,-0.12544 4.064707,-0.15459 0.504227,-0.0291 1.844712,-0.0783 2.978856,-0.10914 1.134145,-0.0309 2.24287,-0.077 2.463832,-0.10256 0.220961,-0.0255 1.336902,-0.0705 2.479865,-0.0999 1.142963,-0.0295 2.509531,-0.0789 3.036816,-0.10979 0.883759,-0.0519 2.068539,-0.0951 10.069148,-0.36788 3.921047,-0.13367 5.586137,-0.19736 7.964477,-0.30465 1.13451,-0.0512 2.19167,-0.0949 2.34924,-0.0971 0.15757,-0.002 2.01404,-0.0744 4.12548,-0.1604 2.11145,-0.086 4.5598,-0.18138 5.44079,-0.21204 0.88098,-0.0307 1.84288,-0.0849 2.13755,-0.12045 0.7375,-0.0891 0.74858,-0.0558 0.83934,2.51548 0.0425,1.20497 0.0988,2.496 0.12506,2.86897 0.0263,0.37297 0.0729,1.24148 0.10365,1.93004 0.0307,0.68855 0.0962,1.97959 0.14539,2.86897 0.0492,0.88938 0.0895,2.43764 0.0895,3.44056 v 1.82351 l -0.57299,0.0179 c -0.31514,0.01 -1.44965,0.0538 -2.52113,0.0977 -1.07148,0.0439 -2.41226,0.0944 -2.97952,0.11221 -0.56725,0.0178 -2.21744,0.0798 -3.6671,0.13775 -1.44965,0.0579 -4.6469,0.17755 -7.105,0.26577 -7.500824,0.2692 -10.622214,0.39278 -17.488057,0.69239 -2.779371,0.12129 -3.258283,0.10091 -3.171917,-0.13496 0.02935,-0.0802 0.375518,-0.11239 1.049036,-0.0977 0.690978,0.0151 1.063294,-0.0208 1.190982,-0.11502 0.116102,-0.0857 0.155323,-0.0908 0.104595,-0.0138 -0.126458,0.19194 0.06522,0.23747 0.567378,0.13475 0.444018,-0.0908 0.987324,-0.11693 5.486125,-0.26363 1.134509,-0.037 2.578428,-0.10257 3.20871,-0.14572 0.630283,-0.0432 1.94528,-0.0869 2.92222,-0.0973 0.976937,-0.0104 2.472428,-0.0627 3.323308,-0.11644 0.85088,-0.0537 2.21745,-0.10637 3.03682,-0.11707 0.81936,-0.0107 2.00544,-0.0572 2.63572,-0.10325 0.63028,-0.0461 1.82924,-0.0975 2.66434,-0.11433 3.83731,-0.16707 6.4376,-0.23879 9.08184,-0.36042 0.78785,-0.0364 1.58118,-0.0579 1.76294,-0.0479 l 0.33048,0.0182 -0.0649,-1.64587 c -0.0357,-0.90522 -0.0911,-1.71628 -0.12305,-1.80234 -0.032,-0.0861 -0.084,-1.19003 -0.11556,-2.45323 -0.0316,-1.26321 -0.0821,-2.36646 -0.11214,-2.45167 -0.0301,-0.0852 -0.0898,-1.09387 -0.13264,-2.24146 -0.0429,-1.14758 -0.11154,-2.57946 -0.1526,-3.18195 l -0.0746,-1.09542 -1.31786,0.0352 c -0.72482,0.0194 -1.73041,0.0549 -2.23464,0.079 -0.50422,0.0241 -1.63873,0.0655 -2.52113,0.092 -0.88239,0.0265 -1.96533,0.0727 -2.40653,0.10263 -0.4412,0.0299 -1.54992,0.079 -2.46383,0.10899 -0.91391,0.03 -2.33205,0.0823 -3.15142,0.1162 -0.81936,0.0339 -2.00544,0.0757 -2.63572,0.0929 -0.63028,0.0172 -1.81636,0.0582 -2.63573,0.091 -0.81937,0.0328 -2.289071,0.0901 -3.266008,0.12732 -0.976939,0.0372 -1.982525,0.0817 -2.234639,0.0989 -0.252113,0.0172 -0.948288,0.0394 -1.547056,0.0493 -0.59877,0.01 -1.862201,0.0586 -2.807623,0.10815 -1.587818,0.0833 -3.158093,0.14671 -6.245527,0.25238 -0.661797,0.0226 -2.002581,0.0695 -2.979518,0.10424 -0.976937,0.0347 -2.343504,0.0809 -3.036816,0.10269 -0.693309,0.0218 -1.673114,0.066 -2.177338,0.0982 -0.504227,0.0322 -1.896578,0.0835 -3.094115,0.1141 -1.197539,0.0306 -2.486749,0.0776 -2.864919,0.10455 -0.37817,0.0269 -1.51268,0.0738 -2.52113,0.104 -4.59749,0.13794 -6.91648,0.23963 -7.03922,0.30869 -0.0732,0.0412 -0.20822,0.0182 -0.3,-0.0512 -0.0918,-0.0694 -0.16716,-0.0851 -0.1675,-0.0351 -3.44e-4,0.0501 -0.50314,0.10256 -1.11732,0.11668 -1.016,0.0234 -1.71458,0.0475 -4.89839,0.16956 -0.56725,0.0217 -2.19166,0.0755 -3.6098,0.11934 -1.41813,0.0439 -2.810486,0.10955 -3.094106,0.14591 l -0.51569,0.0661 0.0206,0.62348 c 0.0114,0.34292 0.0824,2.0319 0.15777,3.75328 0.0754,1.72138 0.14943,3.45842 0.16448,3.86007 0.1057,2.8221 0.21563,4.62232 0.29384,4.81185 0.0556,0.13474 0.0408,0.26753 -0.0377,0.33906 -0.071,0.0647 -0.0802,0.11749 -0.0203,0.11738 0.0612,-1e-4 0.0916,0.2794 0.0693,0.63867 l -0.0395,0.63886 2.617956,-0.0761 c 1.43988,-0.0419 2.64745,-0.0921 2.68349,-0.11171 0.036,-0.0196 1.09319,-0.0618 2.34923,-0.0938 3.08354,-0.0787 5.14577,-0.15536 5.83621,-0.21701 0.31514,-0.0281 1.47543,-0.0731 2.57843,-0.10002 1.10299,-0.0269 2.5727,-0.072 3.26601,-0.10037 0.69331,-0.0283 2.08566,-0.0777 3.09411,-0.10972 1.00845,-0.032 2.220318,-0.0793 2.69303,-0.10506 0.874637,-0.0477 3.0098,-0.12879 5.386052,-0.20464 2.546009,-0.0813 4.415068,-0.17011 4.727118,-0.22465 0.236315,-0.0413 0.315142,-0.0139 0.315142,0.10968 0,0.12182 -0.126992,0.16893 -0.487037,0.18067 -0.267872,0.009 -0.538607,0.024 -0.601633,0.034 -0.06303,0.01 -1.094402,0.0552 -2.291937,0.10067 -1.197536,0.0454 -2.35783,0.0964 -2.578429,0.11332 -0.220599,0.0169 -1.07148,0.0398 -1.890847,0.0509 -0.819367,0.0111 -2.031227,0.0594 -2.693026,0.10741 -0.661803,0.048 -2.157283,0.1142 -3.323313,0.14722 -1.16602,0.033 -3.28033,0.10372 -4.69847,0.15711 -1.41813,0.0534 -4.56381,0.17031 -6.9904,0.25982 -2.42659,0.0895 -5.64963,0.20892 -7.1623,0.26535 -1.51268,0.0564 -2.809266,0.10305 -2.881306,0.1036 -0.072,5.3e-4 -0.16342,-0.076 -0.20305,-0.16998 z m 1.041986,-0.89019 c -0.16228,-0.23382 -0.18459,-0.49428 -0.25317,-2.95541 -0.0128,-0.45903 -0.0521,-1.11629 -0.0873,-1.46057 -0.0352,-0.34427 -0.097,-1.58836 -0.137316,-2.76464 0.0353,-1.10468 -0.11444,-1.89028 -0.0409,-2.74786 -0.13058,-0.14591 -0.22582,-3.35653 -0.10289,-3.46854 0.0475,-0.0433 0.25376,-0.0884 0.458386,-0.10029 0.20463,-0.0119 0.75881,-0.0496 1.23152,-0.0838 0.47272,-0.0342 2.56124,-0.11126 4.64117,-0.1713 2.07994,-0.06 4.09111,-0.13359 4.46928,-0.16343 0.37817,-0.0298 1.46111,-0.0729 2.40653,-0.0957 0.94543,-0.0228 2.26043,-0.0678 2.92222,-0.1 7.5195,-0.2481 15.167688,-0.64967 21.759634,-0.84324 1.032396,-0.0301 1.909061,-0.0709 1.948146,-0.0908 0.03909,-0.0199 0.78179,-0.0456 1.650457,-0.0571 0.868667,-0.0115 1.874256,-0.0416 2.234639,-0.0668 0.99281,-0.0695 2.711675,-0.13661 3.863954,-0.15091 0.567256,-0.007 1.861741,-0.0575 2.876637,-0.11219 1.014902,-0.0547 2.639312,-0.11903 3.609802,-0.14305 2.01612,-0.0499 4.33745,-0.1322 6.00461,-0.21294 0.63029,-0.0305 1.71323,-0.0771 2.40654,-0.10346 0.69331,-0.0264 1.93096,-0.0745 2.75032,-0.10693 0.81937,-0.0324 2.13437,-0.0765 2.92222,-0.0979 0.78786,-0.0214 1.82075,-0.0717 2.29534,-0.11175 1.13556,-0.0958 1.10163,-0.15358 1.18183,2.01168 0.0912,0.97408 0.11059,2.04564 0.14082,2.92169 0.0946,1.70331 0.16885,3.44574 0.22119,5.19023 0.031,1.03283 0.0841,2.21447 0.11798,2.62587 0.0842,1.02251 0.36616,0.96717 -5.79017,1.13669 -1.29178,0.0356 -2.37642,0.0803 -2.41032,0.0993 -0.0339,0.0191 -1.4007,0.0676 -3.03735,0.10781 -1.63665,0.0402 -3.00879,0.0903 -3.04919,0.11129 -0.0404,0.021 -0.8655,0.0614 -1.83355,0.0898 -2.36128,0.0693 -4.900273,0.17033 -5.268613,0.20963 -0.164896,0.0176 -1.479894,0.0611 -2.922217,0.0966 -1.442326,0.0355 -2.931821,0.0893 -3.30999,0.11948 -0.378169,0.0302 -1.383755,0.0745 -2.234639,0.0985 -0.850879,0.024 -2.062742,0.0674 -2.693025,0.0963 -2.782737,0.128 -5.060106,0.21221 -5.271452,0.19492 -0.126058,-0.0103 -1.183214,0.027 -2.349236,0.083 -1.166024,0.0559 -2.816217,0.12056 -3.667098,0.1436 -0.850882,0.023 -2.34637,0.0768 -3.323309,0.11942 -0.97694,0.0426 -1.89228,0.0809 -2.0341,0.0851 -0.95245,0.0106 -1.96818,0.0772 -2.83627,0.11051 -0.81936,0.0306 -2.05701,0.0791 -2.75032,0.10774 -0.69331,0.0286 -1.95674,0.0739 -2.80762,0.10071 -1.72828,0.0544 -3.37537,0.12005 -6.58932,0.26268 -1.19754,0.0531 -3.10557,0.12514 -4.24008,0.16001 -1.13451,0.0349 -2.25229,0.0872 -2.48395,0.11626 -0.35128,0.0441 -0.44919,0.0125 -0.58979,-0.19006 z m 5.53757,-0.2948 c 1.16602,-0.0564 2.89357,-0.12724 3.83899,-0.15742 0.94543,-0.0302 2.20886,-0.0769 2.80763,-0.10391 2.11876,-0.0954 6.70946,-0.27309 7.105,-0.27501 1.02355,-0.005 3.10371,-0.0799 3.72439,-0.13427 0.37817,-0.0331 1.538467,-0.0852 2.578434,-0.11572 1.039966,-0.0306 2.354964,-0.0777 2.922217,-0.10474 1.193787,-0.0569 5.012796,-0.20285 9.282343,-0.35466 1.638737,-0.0583 3.520988,-0.13068 4.182785,-0.16092 1.437399,-0.0657 6.185807,-0.23644 8.82396,-0.31732 1.03996,-0.0319 2.38074,-0.0803 2.97951,-0.10758 0.59877,-0.0273 1.73328,-0.072 2.52113,-0.0992 1.31328,-0.0455 2.53333,-0.0934 5.32876,-0.20921 0.56725,-0.0235 1.77911,-0.0693 2.69302,-0.10184 3.48618,-0.12402 6.59542,-0.27112 6.7455,-0.31913 0.16648,-0.0532 0.16109,-0.34015 -0.10656,-5.68108 -0.0647,-1.29104 -0.15571,-3.42712 -0.20225,-4.74685 -0.0465,-1.31973 -0.12378,-2.45711 -0.17166,-2.52751 -0.0919,-0.13514 -0.51057,-0.12906 -5.34825,0.0777 -1.29208,0.0552 -3.14855,0.12542 -4.12549,0.15597 -2.30653,0.0721 -6.83302,0.24302 -8.36557,0.31584 -1.0917,0.0519 -4.001929,0.15411 -8.995849,0.31602 -1.008451,0.0327 -2.433442,0.0974 -3.166645,0.14383 -0.733202,0.0464 -1.893495,0.0908 -2.578428,0.0986 -0.684934,0.008 -2.100225,0.0631 -3.145094,0.12298 -1.044868,0.0598 -1.947317,0.0977 -2.005444,0.084 -0.05813,-0.0136 -1.008133,0.0105 -2.111128,0.0537 -2.196563,0.0861 -3.090911,0.11938 -5.672543,0.21141 -0.945424,0.0337 -2.672968,0.108 -3.838998,0.16511 -1.16602,0.0571 -3.53817,0.15198 -5.27145,0.21082 -3.10026,0.10524 -4.49133,0.15926 -6.64662,0.2581 -0.59876,0.0275 -1.81063,0.0751 -2.69302,0.10581 -0.8824,0.0307 -2.76465,0.10096 -4.18278,0.15605 -1.41814,0.0551 -2.64996,0.10096 -2.73739,0.10194 -0.131796,0.001 -0.146206,0.2735 -0.0844,1.59276 0.041,0.87504 0.103106,2.29518 0.138006,3.15587 0.0349,0.86069 0.10618,2.1752 0.15839,2.92114 0.0522,0.74593 0.10104,1.94307 0.10849,2.66032 0.0128,1.23535 0.0936,2.40966 0.18407,2.67793 0.0451,0.13359 1.52848,0.11424 5.32693,-0.0695 z m -3.98224,-1.0929 c -0.38155,-0.25324 -0.32659,-0.61031 0.14741,-0.95771 0.70602,-0.51746 0.77149,-0.8773 0.61501,-3.38018 -0.0745,-1.19213 -0.10415,-2.24193 -0.0658,-2.3329 0.34476,-0.81791 1.19598,1.20387 1.34259,3.18888 0.12491,1.69126 0.26301,2.06306 0.9029,2.4308 0.52497,0.3017 0.65508,0.7929 0.26089,0.98496 -0.41894,0.20411 -2.91739,0.25572 -3.203,0.0661 z m 2.96107,-0.3545 0.26478,-0.19519 -0.36076,-0.16984 c -0.83419,-0.39271 -1.01401,-0.82786 -1.12645,-2.72592 -0.0523,-0.88234 -0.14204,-1.40577 -0.30418,-1.77354 -0.12652,-0.28698 -0.27499,-0.63914 -0.32993,-0.78258 -0.0589,-0.1539 -0.0693,0.44484 -0.0253,1.46056 0.10647,2.45533 -0.0248,3.64177 -0.40413,3.65374 -0.28369,0.009 -0.6255,0.40595 -0.48356,0.56164 0.23859,0.26172 2.40595,0.23913 2.76949,-0.0289 z m -1.99466,-6.18827 c -0.0366,-0.0832 -0.0637,-0.0585 -0.0692,0.063 -0.005,0.10998 0.0221,0.1716 0.0602,0.13693 0.0381,-0.0347 0.0422,-0.12465 0.009,-0.19996 z m 3.39937,6.51228 c -0.0727,-0.0422 -0.32327,-0.52264 -0.55687,-1.06775 -0.84271,-1.96648 -1.42278,-3.32524 -2.36053,-5.52929 -1.10722,-2.60237 -1.28589,-2.92114 -1.63732,-2.92114 -0.51659,0 -0.77265,-0.81205 -0.32487,-1.03022 0.36448,-0.17758 4.5207,-0.18472 4.62325,-0.008 0.44064,0.75961 1.58927,3.447 1.60457,3.75412 0.007,0.14154 0.0577,0.0226 0.11251,-0.26428 0.21298,-1.11429 0.3536,-1.61706 0.45228,-1.61706 0.0565,0 0.0731,0.0704 0.0368,0.15649 -0.0418,0.0991 0.002,0.15649 0.11819,0.15649 0.14218,0 0.18597,0.11295 0.19211,0.49555 0.004,0.27255 0.0278,0.79206 0.0521,1.15445 0.0364,0.5439 -0.0674,1.05373 -0.59492,2.92114 -0.35147,1.24423 -0.71751,2.54391 -0.81343,2.88819 -0.23529,0.84456 -0.52146,1.13307 -0.90388,0.91126 z m 0.54586,-0.78526 c 0.0734,-0.24144 0.13496,-0.49766 0.13681,-0.56939 0.0206,-0.60038 0.24029,-0.93928 0.452,-1.61501 0.77232,-2.66929 0.86716,-3.13556 0.86512,-4.25331 l -0.002,-1.09543 -0.15029,0.87337 c -0.215591,1.25289 -0.496881,1.37219 -0.892591,0.37855 -0.0914,-0.22952 -0.46477,-1.09125 -0.82971,-1.91496 l -0.663509,-1.49765 -1.8994,0.0438 c -2.32843,0.0537 -2.98592,0.26407 -1.96549,0.62898 0.32083,0.11474 0.51374,0.27613 0.67357,0.56354 0.24952,0.44867 2.36522,5.3658 2.48507,5.77557 0.0419,0.14345 0.17477,0.4486 0.29514,0.67812 0.12037,0.22952 0.35132,0.74593 0.51323,1.14759 0.63164,1.56692 0.73788,1.65955 0.98207,0.85628 z m 1.84957,0.60512 c -0.41883,-0.27477 -0.34847,-0.74164 0.15231,-1.01062 l 0.41014,-0.22031 -0.0652,-1.21066 c -0.0358,-0.66587 -0.11788,-2.33739 -0.1823,-3.7145 -0.0644,-1.3771 -0.13836,-2.94094 -0.16432,-3.47518 -0.0551,-1.13503 -0.18518,-1.03798 1.48234,-1.1062 0.69331,-0.0284 1.65324,-0.0836 2.13318,-0.12263 1.38687,-0.11294 1.88732,0.54878 0.86389,1.14227 l -0.32624,0.18919 0.0639,1.63411 c 0.0351,0.89877 0.094,2.52611 0.13076,3.61632 0.0953,2.82408 0.095,2.82245 0.63724,3.13411 1.16786,0.67116 0.52111,1.05858 -1.89837,1.13715 -1.07148,0.0348 -2.1802,0.0887 -2.46383,0.11968 -0.37135,0.0406 -0.58785,0.009 -0.77353,-0.11273 z m 3.69396,-0.31909 c 1.60269,-0.0718 1.73227,-0.15155 1.09341,-0.67284 l -0.44749,-0.36515 -0.0819,-2.08652 c -0.0451,-1.14759 -0.0934,-2.29779 -0.10742,-2.556 -0.201,-3.69703 -0.20123,-3.69408 0.31871,-3.99529 0.83355,-0.48289 0.44439,-0.58306 -2.00502,-0.5161 l -2.02519,0.0554 0.046,1.36733 c 0.0253,0.75203 0.0759,2.02458 0.11247,2.8279 0.0366,0.80331 0.0899,2.06469 0.11856,2.80306 0.0287,0.73837 0.0848,1.50094 0.12467,1.69461 0.10874,0.52769 -0.0191,0.83165 -0.41205,0.97984 -0.92634,0.34931 -0.48795,0.6483 0.84928,0.57921 0.57341,-0.0296 1.66059,-0.0816 2.41594,-0.1154 z m 3.06232,0.0373 c -0.2939,-0.26756 -0.16557,-0.77922 0.25163,-1.00331 l 0.38994,-0.20946 -0.0511,-1.2875 c -0.0281,-0.70812 -0.10047,-2.09891 -0.16075,-3.09064 -0.0603,-0.99172 -0.10961,-2.20369 -0.10961,-2.69326 0,-0.95934 -0.11589,-1.29371 -0.44839,-1.29371 -0.52272,0 -0.63288,-0.78182 -0.14142,-1.00367 0.3932,-0.1775 4.83527,-0.3088 5.15624,-0.15241 0.39219,0.19108 0.3228,0.63899 -0.15915,1.02744 -0.38195,0.30785 -0.40228,0.35645 -0.34608,0.82772 0.0574,0.48153 0.0861,1.07862 0.24948,5.18718 0.0881,2.21697 0.10122,2.27186 0.61619,2.5872 1.09598,0.67113 0.4033,1.12186 -1.7416,1.13328 -0.90102,0.005 -2.0272,0.0286 -2.50263,0.0529 -0.58114,0.0297 -0.90974,0.003 -1.00272,-0.0817 z m 5.14321,-0.40207 c 0.29706,-0.14473 0.2328,-0.31845 -0.19115,-0.51673 -0.18403,-0.0861 -0.36595,-0.1954 -0.40425,-0.24296 -0.10821,-0.13435 -0.26211,-2.56851 -0.39983,-6.32377 l -0.0782,-2.13286 0.44513,-0.34023 c 0.66492,-0.50819 0.47633,-0.59019 -1.38278,-0.60118 -1.46511,-0.009 -1.55134,0.002 -1.5514,0.19426 -5e-5,0.15823 -0.0306,0.17561 -0.13759,0.0782 -0.20526,-0.18687 -1.51924,-0.16262 -1.69603,0.0313 -0.17516,0.19214 0.0279,0.46947 0.34379,0.46947 0.37239,0 0.45702,0.26449 0.50403,1.57516 0.0255,0.7116 0.10836,2.60427 0.18408,4.20594 l 0.13767,2.91213 -0.43186,0.33008 c -0.72962,0.55765 3.5708,0.89105 4.65841,0.36115 z m 1.7358,0.29176 c -0.14769,-0.16643 -0.42607,-3.30606 -0.32549,-3.67091 0.20296,-0.73616 1.10234,-0.60658 1.43671,0.207 0.52074,1.26707 1.093102,1.93602 1.96151,2.29252 0.481743,0.19777 0.613489,0.4263 0.547732,0.95013 -0.04811,0.38322 -0.757035,0.39775 -1.684471,0.0345 l -0.598321,-0.23432 -0.31613,0.27573 c -0.33517,0.29233 -0.82877,0.36255 -1.02154,0.14532 z m 1.09778,-0.56484 c 0.2488,-0.16151 0.30204,-0.15872 0.859473,0.0451 1.072821,0.39225 1.302334,0.39831 1.313687,0.0347 0.0084,-0.26856 -0.04751,-0.32922 -0.401266,-0.43551 -0.812366,-0.24407 -1.678594,-1.26014 -2.053104,-2.40824 -0.34372,-1.05369 -1.04653,-0.54195 -0.83911,0.61099 0.0599,0.33286 0.10917,1.00659 0.10954,1.49718 7.94e-4,1.00527 0.12305,1.24142 0.50987,0.98449 0.12962,-0.0861 0.35503,-0.23401 0.50091,-0.32871 z m 2.960996,0.43839 c -0.189843,-0.45039 -0.08358,-0.86211 0.255506,-0.98998 0.866907,-0.3269 1.24691,-1.17743 0.752612,-1.68451 -0.206192,-0.21152 -1.756428,-0.92872 -2.007452,-0.92872 -0.283342,0 -1.869862,-0.79144 -2.337132,-1.16589 -2.40638,-1.92834 -1.33012,-5.42014 1.906179,-6.18438 1.027798,-0.24272 1.55583,0.64874 0.667298,1.12657 -1.262597,0.67899 -0.762156,1.62538 1.224216,2.31513 3.405815,1.18265 4.588804,2.79807 3.74635,5.11582 -0.546847,1.50447 -3.802023,3.3581 -4.207577,2.39596 z m 1.414936,-0.34693 c 2.800041,-0.90501 3.63201,-3.85915 1.572133,-5.58229 -0.72691,-0.60808 -0.893579,-0.69209 -2.202415,-1.11025 -0.567253,-0.18123 -1.223648,-0.44462 -1.458653,-0.58532 -0.469614,-0.28115 -0.60317,-0.31892 -0.478549,-0.13536 0.05107,0.0752 0.03139,0.0921 -0.0524,0.045 -0.0738,-0.0415 -0.108764,-0.11292 -0.07771,-0.15867 0.03106,-0.0457 -0.04546,-0.16714 -0.170026,-0.26977 -0.4698,-0.38706 -0.320776,-1.25624 0.305074,-1.77933 1.314751,-1.09889 -0.576494,-0.98935 -1.994355,0.11552 -0.87098,0.67871 -1.44831,2.3181 -1.04906,2.97891 0.0838,0.13861 0.13901,0.33124 0.12281,0.42806 -0.0791,0.47283 1.45961,2.0495 2.01383,2.06344 0.07726,0.002 0.30932,0.0973 0.515685,0.21179 0.206365,0.11455 0.45405,0.20844 0.550411,0.20866 0.407406,9.5e-4 1.755235,0.62109 2.124626,0.97761 0.611727,0.59042 0.45132,1.27315 -0.187106,1.85029 -0.09088,0.0822 -0.24819,0.1074 -0.499049,0.29421 -0.157295,0.14823 -0.127204,0.0537 -0.221694,0.34637 -0.125259,0.43607 0.09278,0.45466 1.186447,0.10117 z m 4.345192,0.0961 c -0.244793,-0.18045 -0.266565,-0.28518 -0.298239,-1.43449 -0.01879,-0.68189 -0.05592,-1.45815 -0.08252,-1.72501 -0.121846,-1.22271 1.03805,-1.33874 1.482021,-0.14825 0.388387,1.04144 1.242285,1.93375 2.145581,2.24209 0.287845,0.0983 0.31514,0.15423 0.31514,0.64628 v 0.5387 l -0.691862,-0.0571 c -0.380524,-0.0314 -0.754396,-0.10415 -0.830826,-0.16164 -0.349909,-0.26321 -0.934688,-0.2506 -1.220444,0.0263 -0.329215,0.31903 -0.468413,0.33146 -0.818856,0.0731 z m 0.743537,-0.37912 c 0.370967,-0.31299 0.649957,-0.32359 1.312558,-0.0499 1.162056,0.48004 1.771052,-0.0283 0.634156,-0.52932 -0.812368,-0.35802 -1.602864,-1.3172 -1.925391,-2.33627 -0.154183,-0.48716 -0.671343,-0.67186 -0.805307,-0.28761 -0.0526,0.15088 0.02617,1.8339 0.0223,2.05549 -0.0016,0.0903 0.01707,0.4722 0.0095,0.64731 -0.02598,0.60265 0.273309,0.90428 0.752157,0.50028 z m 3.276814,0.26077 c -0.235727,-0.40099 -0.0498,-1.04322 0.302009,-1.04322 0.28525,0 0.95858,-0.67801 0.95858,-0.96524 0,-0.54844 -0.448746,-0.92609 -1.604354,-1.35016 -3.348667,-1.22885 -4.240083,-2.06586 -4.240083,-3.98132 0,-1.86151 1.177822,-3.20726 3.174217,-3.62679 1.148242,-0.24129 1.386197,0.48091 0.435584,1.322 -0.976538,0.86403 -0.552305,1.45829 1.556774,2.18071 2.921423,1.00068 3.851616,1.98211 3.748227,3.9547 -0.109278,2.08495 -1.401042,3.29637 -3.901217,3.65855 -0.224989,0.0326 -0.347949,-0.0101 -0.429737,-0.14923 z m 1.718977,-0.44785 c 1.046395,-0.44829 2.177341,-1.58546 2.177341,-2.18932 0,-0.14939 0.05157,-0.30063 0.114596,-0.33609 0.151305,-0.0851 0.14541,-0.71229 -0.01347,-1.43248 -0.272484,-1.23519 -1.276196,-1.96822 -4.054724,-2.96123 -1.831583,-0.65458 -2.204923,-1.53885 -1.096105,-2.59615 0.597816,-0.57004 0.585465,-0.82653 -0.03545,-0.73614 -1.70789,0.24862 -2.887776,1.43708 -3.113032,3.13565 -0.166767,1.25755 1.533263,3.3906 2.702301,3.3906 0.09822,0 0.227571,0.0428 0.287449,0.0952 0.05988,0.0524 0.547198,0.24616 1.082939,0.43065 1.890782,0.65114 2.411278,1.95065 1.06385,2.65609 -0.552056,0.28903 -0.76446,0.60293 -0.543875,0.80374 0.0816,0.0743 1.065668,-0.10522 1.428171,-0.26053 z m 4.038031,0.0135 c -0.278905,-0.25391 -0.165436,-0.6862 0.257138,-0.97962 0.397534,-0.27604 0.398698,-0.27932 0.345133,-0.97033 -0.02956,-0.38134 -0.08166,-1.42103 -0.115771,-2.31041 -0.03411,-0.88938 -0.106709,-2.27431 -0.161322,-3.07763 -0.05461,-0.80331 -0.09176,-1.57793 -0.08256,-1.72138 0.01312,-0.20465 -0.07582,-0.30199 -0.413007,-0.45198 -0.466918,-0.2077 -0.611296,-0.74154 -0.270243,-0.99922 0.436682,-0.32993 5.537788,-0.33514 5.584672,-0.006 0.0079,0.0554 0.02418,0.15934 0.03624,0.23107 0.03677,0.21884 -0.151993,0.47768 -0.400793,0.54957 -0.394105,0.11387 -0.436518,0.44913 -0.330888,2.6155 0.05571,1.14253 0.137099,2.87354 0.180871,3.8467 0.0871,1.93642 0.01614,1.73799 0.854366,2.38937 0.272135,0.21147 0.144508,0.58626 -0.261723,0.76858 -0.418666,0.1879 -5.030536,0.28988 -5.222107,0.11548 z m 3.500528,-0.24996 c 1.93059,-0.0892 2.253144,-0.25152 1.342694,-0.67561 l -0.343792,-0.16014 -0.07247,-1.20566 c -0.03985,-0.66312 -0.106413,-1.30304 -0.147907,-1.42206 -0.04149,-0.11902 -0.03023,-0.24183 0.02503,-0.27292 0.104624,-0.0589 0.100944,-0.31815 -0.0083,-0.58699 -0.06993,-0.17203 -0.240083,-3.57271 -0.224358,-4.48399 0.01,-0.57972 0.0799,-0.68495 0.664093,-0.9998 0.752084,-0.40534 -1.969341,-0.67317 -3.579156,-0.35225 -0.220649,0.044 -0.417748,0.0262 -0.501362,-0.0451 -0.102274,-0.0873 -0.150262,-0.0868 -0.186243,0.002 -0.02666,0.0656 -0.141443,0.0972 -0.255084,0.0701 -0.113639,-0.0271 -0.297905,0.0339 -0.409485,0.1355 -0.21716,0.19769 -0.14682,0.29289 0.456014,0.61715 0.13738,0.0739 0.217834,0.28595 0.257276,0.67812 0.03156,0.31383 0.10601,0.62628 0.165441,0.69434 0.06557,0.0751 0.0672,0.19814 0.0041,0.31298 -0.06098,0.11103 -0.06411,0.66349 -0.0076,1.33683 0.053,0.63117 0.109079,2.17619 0.124624,3.43337 l 0.02827,2.28579 -0.343791,0.17437 c -0.413145,0.20955 -0.447321,0.45705 -0.06982,0.50563 0.573773,0.15594 -0.04587,-0.002 0.425818,0.0709 0.336077,0.0369 0.400061,0.0389 0.712433,0.005 0.224227,-0.0246 1.048285,-0.0757 1.943553,-0.11704 z m 3.319489,0.0578 c -0.347374,-0.19769 -0.264433,-0.78789 0.141396,-1.00614 0.391834,-0.21071 0.700413,-0.73177 0.72041,-1.21646 0.02254,-0.54651 -0.14804,-4.78424 -0.211291,-5.24893 -0.105302,-0.77363 0.305176,-0.69448 0.848617,0.16362 l 0.445576,0.70358 0.07488,2.02445 c 0.100279,2.71115 0.203981,3.06349 1.040021,3.53389 0.66555,0.37447 0.38625,1.04655 -0.43493,1.04655 -0.21092,0 -0.842632,0.0256 -1.403813,0.0568 -0.647739,0.036 -1.09356,0.0151 -1.220872,-0.0573 z m 2.971699,-0.43248 c 0.11687,-0.0883 0.0256,-0.21807 -0.42294,-0.60146 -0.481752,-0.41176 -0.571965,-0.54836 -0.571965,-0.86607 0,-0.20747 -0.04611,-0.39287 -0.102457,-0.41199 -0.05635,-0.0191 -0.12483,-0.95024 -0.152175,-2.06914 l -0.04972,-2.03436 -0.344813,-0.54798 -0.344816,-0.54799 0.02302,0.70447 c 0.01265,0.38746 0.06206,1.66689 0.109757,2.84316 0.09859,2.43102 0.04548,2.6812 -0.675381,3.18175 -0.343744,0.23869 -0.390752,0.31464 -0.274018,0.44269 0.166494,0.18263 2.545028,0.10372 2.805498,-0.0931 z m 3.38,-0.37549 c -0.80007,-1.0744 -2.31216,-3.27506 -2.31216,-3.36505 0,-0.0483 -0.12101,-0.22049 -0.26892,-0.38269 -0.33495,-0.36732 -3.029781,-4.14815 -3.202226,-4.49271 -0.06959,-0.13903 -0.335526,-0.34923 -0.590975,-0.46709 -0.525503,-0.24247 -0.632095,-0.35428 -0.634596,-0.66565 -0.0038,-0.47968 0.25091,-0.53763 2.709392,-0.61625 l 2.310055,-0.0739 0.20357,0.29786 c 0.11197,0.16382 0.41829,0.60301 0.68071,0.97597 0.26243,0.37297 0.7875,1.12412 1.16683,1.66923 0.37932,0.5451 1.18236,1.69537 1.78451,2.55614 l 1.09484,1.56505 0.001,1.46042 c 7.9e-4,0.80322 0.0364,1.54316 0.0793,1.64431 0.16447,0.38785 -0.13467,0.49422 -1.38988,0.49422 h -1.18497 l -0.4467,-0.59988 z m 2.31439,0.28781 c 0.38142,-7.4e-4 0.42373,-0.0229 0.30111,-0.1574 -0.0875,-0.096 -0.0963,-0.15649 -0.0226,-0.15649 0.0786,0 0.10161,-0.31502 0.0665,-0.91285 -0.0294,-0.50207 -0.0689,-1.17106 -0.0878,-1.48665 -0.0313,-0.52412 -0.12213,-0.69572 -1.04978,-1.9822 -0.55856,-0.77462 -1.00512,-1.44362 -0.99236,-1.48665 0.0127,-0.043 -0.0284,-0.0782 -0.0914,-0.0782 -0.063,0 -0.10352,-0.0352 -0.09,-0.0782 0.0135,-0.043 -0.11484,-0.26603 -0.28527,-0.49555 -0.55255,-0.7441 -0.60964,-0.82316 -1.22412,-1.69498 -0.33352,-0.47321 -0.69708,-1.0131 -0.80792,-1.19976 -0.22781,-0.38366 0.0626,-0.36189 -3.036053,-0.22748 -1.910715,0.0829 -2.227607,0.26157 -1.231916,0.69462 0.376462,0.16374 0.625022,0.36544 0.805963,0.65405 0.143896,0.22952 0.530661,0.79693 0.859478,1.26092 0.328816,0.46399 0.804118,1.13815 1.056238,1.49812 0.25211,0.35998 0.63905,0.87234 0.85986,1.13858 0.22082,0.26625 0.51903,0.69535 0.66271,0.95356 0.14367,0.2582 0.35649,0.58683 0.47294,0.73028 0.19044,0.23461 1.15378,1.61105 1.44239,2.06094 0.063,0.0982 0.26327,0.38473 0.44498,0.63663 l 0.33039,0.45799 0.58639,-0.0641 c 0.32251,-0.0353 0.78608,-0.0645 1.03016,-0.065 z m 6.26015,0.10998 c -2.08723,-0.58162 -3.30825,-2.05195 -3.88803,-4.68187 -0.62742,-2.84601 1.87575,-6.54584 4.30575,-6.36415 0.5445,0.0407 0.71813,0.72036 0.28481,1.11485 -0.47388,0.43141 -0.48972,0.54623 -0.37998,2.75506 0.0576,1.16035 0.10384,2.20362 0.10266,2.31838 -0.0214,2.08145 0.26369,3.58521 0.72194,3.80848 0.18061,0.088 0.22801,0.21876 0.22801,0.62905 v 0.51796 l -0.54434,-0.009 c -0.29938,-0.005 -0.67325,-0.0449 -0.83082,-0.0888 z m 1.05209,-0.47603 c -0.0201,-0.11476 -0.10134,-0.2556 -0.1805,-0.31298 -0.57004,-0.41318 -0.57843,-0.4676 -0.76501,-4.95997 -0.14886,-3.58449 -0.12437,-4.02718 0.23945,-4.32692 0.77222,-0.63621 -0.064,-0.88096 -1.1724,-0.34314 -3.86965,1.87766 -3.69013,8.10421 0.28391,9.84682 0.95797,0.42007 1.65874,0.46235 1.59455,0.0962 z m 0.7383,0.41323 c -0.17671,-0.41922 -0.0711,-0.83648 0.28326,-1.11958 l 0.3547,-0.28335 -0.0556,-1.46719 c -0.0613,-1.61617 -0.0437,-1.56818 -0.62667,-1.7175 -0.50666,-0.12978 -0.69525,-0.55454 -0.38956,-0.8774 0.28054,-0.2963 4.35512,-0.52855 4.78405,-0.2727 0.37144,0.22157 0.36728,0.67259 -0.009,0.99454 l -0.28601,0.24461 0.0736,1.47536 0.0736,1.47536 -0.38926,0.33163 c -0.99644,0.84894 -3.61568,1.68439 -3.81302,1.21622 z m 1.50185,-0.42436 c 1.46764,-0.44818 2.53579,-1.14804 2.39628,-1.57005 -0.20916,-0.6327 -0.11582,-2.6001 0.1382,-2.91288 0.48424,-0.59627 0.2874,-0.70608 -1.11709,-0.62322 -0.66793,0.0394 -1.62122,0.089 -2.1184,0.11028 -1.1442,0.0489 -1.48912,0.66267 -0.3794,0.67514 0.24896,0.003 0.6018,0.68876 0.4486,0.87213 -0.0589,0.0705 -0.0546,0.56716 0.0102,1.18616 0.12076,1.15273 0.0214,1.60917 -0.39443,1.81176 -0.26461,0.12892 -0.30075,0.72263 -0.044,0.72263 0.0932,0 0.57023,-0.12238 1.06002,-0.27195 z m -9.92581,-4.72772 c -0.46837,-0.71774 -0.47145,-0.72929 -0.47145,-1.77205 0,-1.25687 -0.17677,-1.94233 -0.57187,-2.2175 -0.15818,-0.11017 -0.40991,-0.28316 -0.55939,-0.38442 -0.31479,-0.21325 -0.26661,-0.77309 0.0782,-0.90909 0.56725,-0.22371 3.08053,-0.17865 3.26299,0.0585 0.21434,0.27858 0.1626,0.63939 -0.11226,0.78284 -0.10995,0.0574 -0.34825,0.24323 -0.52956,0.41301 l -0.32966,0.30868 0.0397,2.21454 c 0.0331,1.84601 0.0151,2.17659 -0.10834,1.98649 l -0.14803,-0.22804 0.0698,0.23473 c 0.13505,0.45415 -0.15373,0.22705 -0.62016,-0.4877 z m 0.54896,-1.54666 c -0.0349,-2.51642 -0.0686,-2.34104 0.5553,-2.89511 0.52072,-0.46245 0.53474,-0.48988 0.32314,-0.63207 -0.21259,-0.14287 -1.64554,-0.11947 -2.84427,0.0464 -0.26896,0.0372 -0.0463,0.44148 0.31987,0.58076 0.63119,0.24009 0.844,0.79534 0.9191,2.3981 0.0569,1.21423 0.37562,2.21427 0.71582,2.24605 0.0194,0.002 0.0244,-0.78306 0.011,-1.74417 z m 0.24921,-3.00807 c 0.005,-0.12154 0.0326,-0.14626 0.0692,-0.063 0.0331,0.0753 0.029,0.16529 -0.009,0.19995 -0.0381,0.0347 -0.0652,-0.0269 -0.0602,-0.13692 z m -28.6874,3.8948 c -0.103147,-0.0717 -0.297561,-0.38861 -0.432033,-0.7042 -0.401333,-0.94189 -0.94476,-1.50652 -1.773465,-1.84267 -0.629512,-0.25535 -0.838517,-0.72184 -0.525227,-1.17231 0.113541,-0.16325 1.205551,-0.0193 1.926241,0.25391 0.345625,0.13103 0.383926,0.12361 0.589479,-0.11429 0.724296,-0.83827 1.111848,-0.29836 1.214662,1.69221 0.09667,1.87156 -0.204536,2.44024 -0.999657,1.88735 z m 0.579208,-0.30776 c 0.264303,-0.24061 0.138178,-3.03926 -0.148707,-3.29976 -0.04239,-0.0385 -0.191735,0.0513 -0.331885,0.19953 -0.298739,0.31597 -0.645332,0.42166 -0.921425,0.281 -0.108304,-0.0552 -0.528177,-0.18656 -0.93305,-0.29197 l -0.736129,-0.19165 v 0.35778 c 0.28649,0.70596 0.05371,0.38531 0.855734,0.65526 0.511648,0.16844 1.150733,0.85063 1.376455,1.4693 0.296889,0.81375 0.561805,1.0728 0.839001,0.82045 z m 9.049284,-0.1617 c -0.0973,-0.10042 -0.214334,-0.34689 -0.260077,-0.54772 -0.07847,-0.3445 -0.78146,-1.36782 -0.991413,-1.44318 -0.05329,-0.0191 -0.09689,-0.13414 -0.09689,-0.2556 0,-0.16766 -0.03204,-0.19165 -0.133078,-0.0997 -0.101039,0.092 -0.204499,0.0864 -0.429738,-0.0231 -0.163164,-0.0794 -0.386903,-0.16995 -0.497203,-0.20134 -0.156117,-0.0444 -0.200546,-0.17336 -0.200546,-0.58198 0,-0.62753 0.171842,-0.66277 1.547058,-0.31733 l 0.802177,0.20151 0.210103,-0.25671 c 0.296469,-0.36222 0.843357,-0.3546 0.997255,0.0139 0.233021,0.55796 0.281516,3.31455 0.06183,3.51454 -0.254455,0.23165 -0.783489,0.22991 -1.009481,-0.003 z m 0.860639,-1.01719 c -0.06983,-2.27507 -0.190664,-2.65189 -0.706194,-2.20224 -0.31647,0.27602 -0.743365,0.35816 -0.872543,0.16788 -0.03895,-0.0574 -0.200091,-0.10432 -0.358087,-0.10432 -0.157993,0 -0.374118,-0.0405 -0.480271,-0.0899 -0.559729,-0.26069 -0.823294,-0.23951 -0.823294,0.0662 0,0.35053 0.72262,0.73534 0.994752,0.52973 0.111521,-0.0843 0.170799,-0.0632 0.236019,0.0839 0.0479,0.10804 0.299958,0.45376 0.560125,0.76828 0.260168,0.31451 0.537623,0.75963 0.616567,0.98915 0.372131,1.08191 0.868725,0.95751 0.832926,-0.20866 z m 28.697139,0.33907 c -0.10636,-0.0717 -0.29897,-0.40504 -0.42802,-0.7407 -0.49216,-1.28013 -1.38398,-2.07846 -2.51651,-2.25269 -0.39566,-0.0609 -0.40109,-0.0687 -0.40109,-0.58156 v -0.51986 l 0.74488,0.0352 c 0.40968,0.0194 1.02144,0.10034 1.35946,0.17993 0.63362,0.14921 0.86826,0.10671 1.15648,-0.20945 0.67171,-0.73683 0.99353,-0.1298 1.08338,2.04352 0.0885,2.14001 -0.14608,2.62047 -0.99858,2.0456 z m 0.6777,-1.33211 c 0.0279,-2.45455 -0.117,-2.90387 -0.75659,-2.34602 l -0.32939,0.28729 -0.78109,-0.17111 c -1.40946,-0.30877 -1.86976,-0.31072 -1.86976,-0.008 0,0.16402 0.0651,0.2575 0.17924,0.2575 0.93838,0 2.08727,1.01351 2.71907,2.39866 0.53097,1.16407 0.82218,1.01876 0.83852,-0.41841 z"
       id="path2492"
       sodipodi:nodetypes="csscsscccccccsccccccccsccsssssccsscsssccscscscscccccscssssccsscsssscsccccsssccssscccsccccssscccsccscsccsscsccssssscccccssccsssccsccssccsscccscccssccsscsscscscccccccccccccsccccscccccsccssscccscccccssscsscssscccccsccsssccccscscccscccsccccsssscccsssccsscccccscssscssscsscccsccscccsccccsccccscccsccsccccccccscscsssssccscsccccsccscsssscscscccssssccsccsssssscsssssscssssscssssscssscsccssscccccscscscsssccccsssssccssssssssssssscssssssscssssccsssssssssssssscccscssccsssccscsssccscccsscccsssscsssscccsscscccsssscccsssscccsssscccsccccssssssssssscssssssscscccccsssscsscccssssssssccscssssccccscsssssccsssssssssssscscsscssccsscsscccccscscssssssccsscsccsscccscscccsscssscssssscscssssssscscccsssccscssssc" />
  </g>
</svg>
