<?xml version="1.0" encoding="iso-8859-1"?>
<!-- Generator: Adobe Illustrator 18.0.0, SVG Export Plug-In . SVG Version: 6.00 Build 0)  -->
<!DOCTYPE svg PUBLIC "-//W3C//DTD SVG 1.1//EN" "http://www.w3.org/Graphics/SVG/1.1/DTD/svg11.dtd">
<svg version="1.1" id="Capa_1" xmlns="http://www.w3.org/2000/svg" xmlns:xlink="http://www.w3.org/1999/xlink" x="0px" y="0px"
	 viewBox="0 0 397.436 397.436" style="enable-background:new 0 0 397.436 397.436;" xml:space="preserve">
<g>
	<path d="M68.992,183.701c-21.662-6.594-31.867-10.978-31.867-22.65c0-12.712,19.478-13.7,25.45-13.7
		c10.62,0,22.418,3.082,32.364,8.457c2.841,1.534,6.188,1.819,9.247,0.79c3.056-1.031,5.548-3.284,6.881-6.222l2.324-5.128
		c2.495-5.501,0.364-11.997-4.904-14.951c-13.12-7.358-29.472-11.579-44.862-11.579c-33.854,0-56.601,17.603-56.601,43.801
		c0,32.705,27.853,40.983,50.239,47.634c22.782,6.769,32.296,11.47,32.232,23.117c0,15.602-21.888,16.815-28.596,16.815
		c-13.541,0-28.056-5.367-39.822-14.723c-2.746-2.184-6.328-3.011-9.753-2.255c-3.424,0.758-6.325,3.02-7.894,6.157l-2.199,4.398
		c-2.41,4.814-1.198,10.654,2.924,14.115c15.465,12.98,36.597,20.729,56.533,20.729c35.234,0,58.909-18.53,58.909-46.063
		C119.728,199.147,91.597,190.582,68.992,183.701z"/>
	<path d="M200.865,118.929c-46.449,0-82.833,35.001-82.833,79.686c0,44.917,36.384,80.104,82.833,80.104
		c46.33,0,82.623-35.187,82.623-80.104C283.489,153.93,247.195,118.929,200.865,118.929z M200.865,250.924
		c-29.886,0-54.2-23.466-54.2-52.31c0-28.73,24.313-52.102,54.2-52.102c29.654,0,53.781,23.373,53.781,52.102
		C254.647,227.458,230.519,250.924,200.865,250.924z"/>
	<path d="M346.827,183.701c-21.66-6.596-31.865-10.98-31.865-22.65c0-12.712,19.481-13.7,25.452-13.7
		c10.622,0,22.419,3.082,32.365,8.457c2.84,1.534,6.189,1.819,9.246,0.79c3.057-1.03,5.55-3.284,6.881-6.222l2.325-5.127
		c2.495-5.501,0.363-11.997-4.904-14.952c-13.12-7.358-29.474-11.579-44.861-11.579c-33.856,0-56.601,17.603-56.601,43.801
		c0,32.706,27.854,40.983,50.238,47.634c22.782,6.77,32.294,11.47,32.233,23.116c0,15.603-21.891,16.816-28.6,16.816
		c-13.54,0-28.056-5.367-39.822-14.723c-2.745-2.184-6.329-3.011-9.752-2.255c-3.425,0.758-6.327,3.02-7.895,6.157l-2.199,4.398
		c-2.409,4.815-1.198,10.655,2.926,14.116c15.466,12.979,36.6,20.729,56.532,20.729c35.234,0,58.91-18.53,58.91-46.063
		C397.565,199.147,369.434,190.582,346.827,183.701z"/>
</g>
<g>
</g>
<g>
</g>
<g>
</g>
<g>
</g>
<g>
</g>
<g>
</g>
<g>
</g>
<g>
</g>
<g>
</g>
<g>
</g>
<g>
</g>
<g>
</g>
<g>
</g>
<g>
</g>
<g>
</g>
</svg>
