<?xml version="1.0" encoding="UTF-8" standalone="no"?>
<svg
   xmlns:osb="http://www.openswatchbook.org/uri/2009/osb"
   xmlns:dc="http://purl.org/dc/elements/1.1/"
   xmlns:cc="http://creativecommons.org/ns#"
   xmlns:rdf="http://www.w3.org/1999/02/22-rdf-syntax-ns#"
   xmlns:svg="http://www.w3.org/2000/svg"
   xmlns="http://www.w3.org/2000/svg"
   xmlns:sodipodi="http://sodipodi.sourceforge.net/DTD/sodipodi-0.dtd"
   xmlns:inkscape="http://www.inkscape.org/namespaces/inkscape"
   version="1.1"
   id="svg62"
   width="32"
   height="32"
   viewBox="0 0 32 32"
   sodipodi:docname="nabla-4.svg"
   inkscape:version="1.0 (1.0+r73+1)">
  <metadata
     id="metadata68">
    <rdf:RDF>
      <cc:Work
         rdf:about="">
        <dc:format>image/svg+xml</dc:format>
        <dc:type
           rdf:resource="http://purl.org/dc/dcmitype/StillImage" />
        <dc:title></dc:title>
      </cc:Work>
    </rdf:RDF>
  </metadata>
  <defs
     id="defs66">
    <linearGradient
       osb:paint="solid"
       id="linearGradient895">
      <stop
         id="stop893"
         offset="0"
         style="stop-color:#000000;stop-opacity:1;" />
    </linearGradient>
  </defs>
  <sodipodi:namedview
     inkscape:showpageshadow="true"
     inkscape:pagecheckerboard="true"
     inkscape:document-rotation="0"
     pagecolor="#ffffff"
     bordercolor="#666666"
     borderopacity="1"
     objecttolerance="10"
     gridtolerance="10"
     guidetolerance="10"
     inkscape:pageopacity="0"
     inkscape:pageshadow="2"
     inkscape:window-width="1872"
     inkscape:window-height="1000"
     id="namedview64"
     showgrid="true"
     inkscape:zoom="11.554125"
     inkscape:cx="48.352668"
     inkscape:cy="17.337013"
     inkscape:window-x="1960"
     inkscape:window-y="27"
     inkscape:window-maximized="0"
     inkscape:current-layer="g70">
    <inkscape:grid
       id="grid1705"
       type="xygrid" />
  </sodipodi:namedview>
  <g
     style="display:inline"
     inkscape:groupmode="layer"
     inkscape:label="Image"
     id="g70">
    <g
       inkscape:export-ydpi="96"
       inkscape:export-xdpi="96"
       transform="matrix(1.2462952,0,0,1.2462952,-154.1568,-124.15578)"
       style="mix-blend-mode:normal;fill:#00aad4;fill-opacity:1"
       id="g44">
      <path
         inkscape:export-ydpi="96"
         inkscape:export-xdpi="96"
         sodipodi:nodetypes="ssscssscsssscsssss"
         id="path46"
         d="m 135.74794,124.9688 c -0.2918,-0.25433 -11.21384,-20.39195 -11.4906,-21.18591 -0.43805,-1.25665 0.0842,-2.57146 1.25256,-3.1537 l 0.63541,-0.31664 h 8.35046 c 4.59275,0 8.34928,0.0422 8.34785,0.0937 -10e-4,0.0516 -0.55348,1.10625 -1.22677,2.34375 l -1.22416,2.25 -4.92471,0.0327 c -2.70859,0.018 -4.96473,0.0742 -5.01364,0.125 -0.12385,0.1285 5.69261,10.83542 5.90607,10.87188 0.11234,0.0192 1.66183,-2.74019 4.40454,-7.84375 l 4.23123,-7.87335 h 0.69177 c 2.02361,0 4.33884,-2.42856 2.78204,3.13153 -0.12841,0.45859 -1.8603,3.41478 -5.88364,10.91099 -3.03164,5.64849 -5.37944,10.39654 -5.52289,10.55123 -0.31812,0.34304 -0.95872,0.37348 -1.31552,0.0625 z"
         style="fill:#00aad4;fill-opacity:1;stroke-width:0.125" />
    </g>
  </g>
</svg>
